<svg width="119" height="32" viewBox="0 0 119 32" fill="none" xmlns="http://www.w3.org/2000/svg">
    <path d="M0 10.7789C0 7.00596 0 5.11947 0.734272 3.67838C1.38016 2.41076 2.41076 1.38016 3.67838 0.734272C5.11947 0 7.00596 0 10.7789 0H21.2211C24.994 0 26.8805 0 28.3216 0.734272C29.5892 1.38016 30.6198 2.41076 31.2657 3.67838C32 5.11947 32 7.00596 32 10.7789V21.2211C32 24.994 32 26.8805 31.2657 28.3216C30.6198 29.5892 29.5892 30.6198 28.3216 31.2657C26.8805 32 24.994 32 21.2211 32H10.7789C7.00596 32 5.11947 32 3.67838 31.2657C2.41076 30.6198 1.38016 29.5892 0.734272 28.3216C0 26.8805 0 24.994 0 21.2211V10.7789Z"
          fill="#666DE3"/>
    <path d="M16.8149 25.6458H18.4992C22.2195 25.6458 25.236 22.6296 25.236 18.9089V7.11945C23.3757 7.11945 21.8676 8.62754 21.8676 10.4879V18.9089C21.8676 20.7692 20.3593 22.2773 18.4992 22.2773H16.8149V25.6458Z"
          fill="white"/>
    <path d="M7.80664 7.11945V25.6458H14.5435V22.2773H11.1751V10.4879C11.1751 8.62754 9.66697 7.11945 7.80664 7.11945Z"
          fill="white"/>
    <path d="M43.7324 7.58568V24.421H55.6398V21.3086H47.4343V7.58568H43.7324Z" fill="white"/>
    <path d="M60.3267 10.3444V7.58568H56.9784V10.3444H60.3267ZM56.9784 12.2307V24.421H60.3267V12.2307H56.9784Z"
          fill="white"/>
    <path d="M62.4915 12.2307V24.421H65.8397V18.0312C65.8397 16.7893 66.0441 15.9012 66.4528 15.3667C66.8615 14.8166 67.5217 14.5415 68.4334 14.5415C69.2351 14.5415 69.7931 14.793 70.1075 15.296C70.4219 15.7833 70.5791 16.53 70.5791 17.536V24.421H73.9273V16.9229C73.9273 16.1684 73.8566 15.4846 73.7151 14.8716C73.5893 14.2428 73.3614 13.7162 73.0313 13.2918C72.7012 12.8516 72.2453 12.5137 71.6637 12.2779C71.0978 12.0264 70.3669 11.9006 69.4709 11.9006C68.7635 11.9006 68.0718 12.0657 67.3959 12.3958C66.72 12.7102 66.1698 13.221 65.7454 13.9284H65.6747V12.2307H62.4915Z"
          fill="white"/>
    <path d="M84.2024 17.0173H78.7556C78.7714 16.7815 78.8185 16.5142 78.8971 16.2156C78.9914 15.9169 79.1408 15.634 79.3451 15.3667C79.5652 15.0995 79.8481 14.8794 80.1939 14.7065C80.5555 14.5179 81.0035 14.4236 81.5379 14.4236C82.3554 14.4236 82.9605 14.6436 83.3535 15.0838C83.7622 15.5239 84.0452 16.1684 84.2024 17.0173ZM78.7556 19.1394H87.5506C87.6135 18.1962 87.5349 17.2923 87.3148 16.4278C87.0947 15.5632 86.7332 14.793 86.2302 14.117C85.7429 13.4411 85.1141 12.9067 84.3438 12.5137C83.5736 12.105 82.6697 11.9006 81.6323 11.9006C80.7048 11.9006 79.856 12.0657 79.0857 12.3958C78.3312 12.7259 77.6789 13.1817 77.1287 13.7634C76.5785 14.3293 76.1541 15.0052 75.8554 15.7912C75.5568 16.5771 75.4074 17.426 75.4074 18.3377C75.4074 19.2808 75.5489 20.1454 75.8318 20.9314C76.1305 21.7173 76.5471 22.3933 77.0815 22.9592C77.616 23.525 78.2683 23.9652 79.0386 24.2796C79.8088 24.5782 80.6734 24.7276 81.6323 24.7276C83.0156 24.7276 84.1945 24.4132 85.1691 23.7844C86.1437 23.1556 86.8668 22.1103 87.3384 20.6484H84.391C84.281 21.0257 83.9823 21.3872 83.495 21.733C83.0077 22.0632 82.4261 22.2282 81.7502 22.2282C80.807 22.2282 80.0839 21.9846 79.5809 21.4973C79.0779 21.01 78.8028 20.224 78.7556 19.1394Z"
          fill="white"/>
    <path d="M103.707 18.0547V7.58568H100.005V18.0547C100.005 19.3123 99.7539 20.2397 99.2509 20.837C98.7479 21.4187 97.8362 21.7095 96.5157 21.7095C95.7612 21.7095 95.156 21.6073 94.7002 21.4029C94.26 21.1829 93.9142 20.9078 93.6627 20.5777C93.4112 20.2319 93.2461 19.8389 93.1675 19.3987C93.0889 18.9586 93.0496 18.5106 93.0496 18.0547V7.58568H89.3477V18.0547C89.3477 20.3497 89.9686 22.0474 91.2105 23.1478C92.468 24.2481 94.2364 24.7983 96.5157 24.7983C98.7636 24.7983 100.524 24.2481 101.797 23.1478C103.071 22.0317 103.707 20.334 103.707 18.0547Z"
          fill="white"/>
    <path d="M112.224 22.2282C111.69 22.2282 111.234 22.1182 110.857 21.8981C110.479 21.678 110.173 21.3951 109.937 21.0493C109.717 20.6877 109.552 20.2712 109.442 19.7996C109.348 19.328 109.3 18.8486 109.3 18.3613C109.3 17.8582 109.348 17.3709 109.442 16.8994C109.536 16.4278 109.693 16.0112 109.914 15.6497C110.149 15.2881 110.448 14.9973 110.81 14.7773C111.187 14.5415 111.651 14.4236 112.201 14.4236C112.735 14.4236 113.183 14.5415 113.545 14.7773C113.922 14.9973 114.229 15.296 114.464 15.6733C114.7 16.0348 114.865 16.4514 114.959 16.9229C115.069 17.3945 115.124 17.874 115.124 18.3613C115.124 18.8486 115.077 19.328 114.983 19.7996C114.889 20.2712 114.724 20.6877 114.488 21.0493C114.268 21.3951 113.969 21.678 113.592 21.8981C113.23 22.1182 112.774 22.2282 112.224 22.2282ZM106.07 12.2307V28.6888H109.418V22.912H109.466C109.874 23.5093 110.393 23.9652 111.022 24.2796C111.666 24.5782 112.366 24.7276 113.12 24.7276C114.016 24.7276 114.794 24.5547 115.455 24.2088C116.131 23.863 116.689 23.3993 117.129 22.8177C117.585 22.2361 117.923 21.568 118.143 20.8135C118.363 20.0589 118.473 19.273 118.473 18.4556C118.473 17.591 118.363 16.7657 118.143 15.9798C117.923 15.1781 117.585 14.4786 117.129 13.8813C116.673 13.2839 116.099 12.8045 115.407 12.4429C114.716 12.0814 113.891 11.9006 112.932 11.9006C112.177 11.9006 111.485 12.05 110.857 12.3486C110.228 12.6473 109.709 13.1267 109.3 13.7869H109.253V12.2307H106.07Z"
          fill="white"/>
</svg>
