<svg width="32" height="32" viewBox="0 0 32 32" fill="none" xmlns="http://www.w3.org/2000/svg">
    <path d="M0 10.7789C0 7.00596 0 5.11947 0.734272 3.67838C1.38016 2.41076 2.41076 1.38016 3.67838 0.734272C5.11947 0 7.00596 0 10.7789 0H21.2211C24.994 0 26.8805 0 28.3216 0.734272C29.5892 1.38016 30.6198 2.41076 31.2657 3.67838C32 5.11947 32 7.00596 32 10.7789V21.2211C32 24.994 32 26.8805 31.2657 28.3216C30.6198 29.5892 29.5892 30.6198 28.3216 31.2657C26.8805 32 24.994 32 21.2211 32H10.7789C7.00596 32 5.11947 32 3.67838 31.2657C2.41076 30.6198 1.38016 29.5892 0.734272 28.3216C0 26.8805 0 24.994 0 21.2211V10.7789Z"
          fill="#666DE3"/>
    <path d="M16.8149 25.6458H18.4992C22.2195 25.6458 25.236 22.6296 25.236 18.9089V7.11945C23.3757 7.11945 21.8676 8.62754 21.8676 10.4879V18.9089C21.8676 20.7692 20.3593 22.2773 18.4992 22.2773H16.8149V25.6458Z"
          fill="white"/>
    <path d="M7.80664 7.11945V25.6458H14.5435V22.2773H11.1751V10.4879C11.1751 8.62754 9.66697 7.11945 7.80664 7.11945Z"
          fill="white"/>
</svg>
