<svg width="56" height="56" viewBox="0 0 56 56" fill="none" xmlns="http://www.w3.org/2000/svg">
    <rect x="7" y="52" width="42" height="1" rx="0.5" fill="#535362"/>
    <path d="M26 36H24C19.5817 36 16 39.5817 16 44V52L17.0534 49.191C18.2243 46.0686 21.2092 44 24.544 44H26V36Z"
          fill="#666DE3"/>
    <path d="M30 36H32C36.4183 36 40 39.5817 40 44V52L38.9466 49.191C37.7757 46.0686 34.7908 44 31.456 44H30V36Z"
          fill="#666DE3"/>
    <path d="M32.8986 46.4393C34.8986 41.4983 36 36.0974 36 30.4393C36 21.1555 33.0349 12.5642 28 5.56079C22.9651 12.5642 20 21.1555 20 30.4393C20 36.0974 21.1014 41.4983 23.1014 46.4393H32.8986Z"
          fill="#E3E3FF"/>
    <path d="M29 42C29 46.4183 28 52 28 52C28 52 27 46.4183 27 42C27 37.5817 27.4477 36 28 36C28.5523 36 29 37.5817 29 42Z"
          fill="#666DE3"/>
    <path d="M22.8235 15.1441C24.1409 11.7144 25.8885 8.49795 28 5.56079C30.1116 8.49795 31.8592 11.7144 33.1766 15.1441C31.5529 15.6989 29.8116 16 28 16C26.1884 16 24.4471 15.6989 22.8235 15.1441Z"
          fill="#666DE3"/>
    <circle cx="28" cy="26" r="4" fill="#0B0B0D"/>
    <path d="M32 26C32 28.2091 30.2091 30 28 30C25.7909 30 24 28.2091 24 26C24 23.7909 25.7909 22 28 22C30.2091 22 32 23.7909 32 26ZM25.0034 26C25.0034 27.655 26.345 28.9966 28 28.9966C29.655 28.9966 30.9966 27.655 30.9966 26C30.9966 24.345 29.655 23.0034 28 23.0034C26.345 23.0034 25.0034 24.345 25.0034 26Z"
          fill="#666DE3"/>
</svg>
