<svg width="57" height="56" viewBox="0 0 57 56" fill="none" xmlns="http://www.w3.org/2000/svg">
    <g clip-path="url(#clip0_406_5023)">
        <circle cx="26.5051" cy="34.8466" r="15.4531" transform="rotate(30 26.5051 34.8466)"
                fill="url(#paint0_radial_406_5023)"/>
        <path d="M27.9587 39.2873C24.287 45.6469 16.5673 51.9021 16.5673 51.9021C16.5673 51.9021 18.1247 42.089 21.7963 35.7295C25.468 29.3699 28.162 27.8897 29.8637 28.8722C31.5653 29.8547 31.6304 32.9278 27.9587 39.2873Z"
              fill="url(#paint1_linear_406_5023)"/>
        <path d="M26.1806 38.8091C23.0335 44.2601 17.517 50.2571 17.517 50.2571C17.517 50.2571 19.9523 42.4812 23.0995 37.0302C26.2466 31.5791 28.063 30.0259 28.9139 30.5171C29.7647 31.0084 29.3278 33.3581 26.1806 38.8091Z"
              fill="url(#paint2_linear_406_5023)"/>
        <path d="M30.2445 24.6546L28.7039 23.7651C25.3005 21.8002 20.9486 22.9663 18.9837 26.3696L15.4258 32.532L17.4865 30.8367C19.7771 28.9523 22.9963 28.6863 25.5651 30.1694L26.6866 30.8169L30.2445 24.6546Z"
              fill="#666DE3"/>
        <path d="M33.3257 26.4333L34.8663 27.3228C38.2697 29.2878 39.4357 33.6396 37.4708 37.043L33.913 43.2054L34.3508 40.5732C34.8375 37.6472 33.4581 34.7263 30.8894 33.2432L29.7678 32.5957L33.3257 26.4333Z"
              fill="#666DE3"/>
        <path d="M30.9157 35.7637C34.6538 32.8472 37.9041 29.1767 40.4204 24.8183C44.5492 17.667 46.086 9.73051 45.3223 2.09666C38.3293 5.25218 32.2245 10.5513 28.0957 17.7026C25.5793 22.061 24.0258 26.7111 23.369 31.4066L30.9157 35.7637Z"
              fill="#E3E3FF"/>
        <path d="M29.8869 30.6104C27.9219 34.0137 24.6693 37.8686 24.6693 37.8686C24.6693 37.8686 26.3813 33.1243 28.3463 29.7209C30.3112 26.3175 31.3595 25.2982 31.7849 25.5439C32.2104 25.7895 31.8518 27.207 29.8869 30.6104Z"
              fill="#666DE3"/>
        <path d="M37.0727 7.17665C39.6128 5.12068 42.3894 3.42024 45.3222 2.09685C45.6425 5.29841 45.5581 8.5532 45.0477 11.781C43.5502 11.4863 42.075 10.9438 40.6795 10.1381C39.2841 9.33246 38.0767 8.32614 37.0727 7.17665Z"
              fill="#666DE3"/>
        <circle cx="36.2322" cy="17.8411" r="3.55784" transform="rotate(30 36.2322 17.8411)" fill="#0B0B0D"/>
        <path d="M39.3134 19.62C38.3309 21.3217 36.155 21.9047 34.4533 20.9222C32.7516 19.9398 32.1685 17.7638 33.151 16.0621C34.1335 14.3604 36.3094 13.7774 38.0111 14.7599C39.7128 15.7423 40.2958 17.9183 39.3134 19.62ZM33.9239 16.5084C33.1879 17.7832 33.6247 19.4133 34.8995 20.1493C36.1743 20.8853 37.8044 20.4485 38.5404 19.1737C39.2764 17.8989 38.8397 16.2688 37.5649 15.5328C36.29 14.7968 34.66 15.2336 33.9239 16.5084Z"
              fill="#666DE3"/>
        <path d="M18.8333 16C18.8333 17.3807 17.714 18.5 16.3333 18.5C17.714 18.5 18.8333 19.6193 18.8333 21C18.8333 19.6193 19.9525 18.5 21.3333 18.5C19.9525 18.5 18.8333 17.3807 18.8333 16Z"
              fill="white"/>
        <path d="M52.3333 28C52.3333 29.1046 51.4378 30 50.3333 30C51.4378 30 52.3333 30.8954 52.3333 32C52.3333 30.8954 53.2287 30 54.3333 30C53.2287 30 52.3333 29.1046 52.3333 28Z"
              fill="#A2A2C0"/>
        <path d="M25.8333 4C25.8333 4.82843 25.1617 5.5 24.3333 5.5C25.1617 5.5 25.8333 6.17157 25.8333 7C25.8333 6.17157 26.5048 5.5 27.3333 5.5C26.5048 5.5 25.8333 4.82843 25.8333 4Z"
              fill="#535362"/>
        <path d="M3.83325 12C3.83325 12.8284 3.16168 13.5 2.33325 13.5C3.16168 13.5 3.83325 14.1716 3.83325 15C3.83325 14.1716 4.50482 13.5 5.33325 13.5C4.50482 13.5 3.83325 12.8284 3.83325 12Z"
              fill="#535362"/>
        <path d="M46.8333 49C46.8333 49.8284 46.1617 50.5 45.3333 50.5C46.1617 50.5 46.8333 51.1716 46.8333 52C46.8333 51.1716 47.5048 50.5 48.3333 50.5C47.5048 50.5 46.8333 49.8284 46.8333 49Z"
              fill="#535362"/>
        <path d="M40.8333 35C40.8333 35.8284 40.1617 36.5 39.3333 36.5C40.1617 36.5 40.8333 37.1716 40.8333 38C40.8333 37.1716 41.5048 36.5 42.3333 36.5C41.5048 36.5 40.8333 35.8284 40.8333 35Z"
              fill="#535362"/>
    </g>
    <defs>
        <radialGradient id="paint0_radial_406_5023" cx="0" cy="0" r="1" gradientUnits="userSpaceOnUse"
                        gradientTransform="translate(26.5051 34.8466) rotate(90) scale(15.4531)">
            <stop stop-color="#005E73"/>
            <stop offset="1" stop-color="#2A2A32"/>
        </radialGradient>
        <linearGradient id="paint1_linear_406_5023" x1="29.8637" y1="28.8722" x2="16.5673" y2="51.9021"
                        gradientUnits="userSpaceOnUse">
            <stop stop-color="#46B1FF"/>
            <stop offset="1" stop-color="#CAFCFF"/>
        </linearGradient>
        <linearGradient id="paint2_linear_406_5023" x1="28.9139" y1="30.5171" x2="17.517" y2="50.2571"
                        gradientUnits="userSpaceOnUse">
            <stop stop-color="#CAFCFF"/>
            <stop offset="1" stop-color="white"/>
        </linearGradient>
        <clipPath id="clip0_406_5023">
            <rect width="56" height="56" fill="white" transform="translate(0.333252)"/>
        </clipPath>
    </defs>
</svg>
