<svg width="57" height="56" viewBox="0 0 57 56" fill="none" xmlns="http://www.w3.org/2000/svg">
    <g clip-path="url(#clip0_406_5025)">
        <path d="M23.6665 15C23.6665 15.0861 23.6677 15.1719 23.6701 15.2573C23.1999 15.0907 22.6938 15 22.1665 15C19.6812 15 17.6665 17.0147 17.6665 19.5C17.6665 21.9853 19.6812 24 22.1665 24H44.6665C47.9802 24 50.6665 21.3137 50.6665 18C50.6665 14.6863 47.9802 12 44.6665 12C43.475 12 42.3647 12.3473 41.4311 12.9462C40.5019 8.96527 36.9305 6 32.6665 6C27.6959 6 23.6665 10.0294 23.6665 15Z"
              fill="#3B3B46"/>
        <circle cx="24.3391" cy="45.4303" r="10" transform="rotate(15 24.3391 45.4303)"
                fill="url(#paint0_radial_406_5025)"/>
        <path d="M28.3969 45.741C27.3963 49.4753 22.2686 53.1576 22.2686 53.1576C22.2686 53.1576 19.6689 47.4047 20.6695 43.6705C21.6701 39.9362 23.7582 39.0629 25.892 39.6346C28.0259 40.2064 29.3975 42.0068 28.3969 45.741Z"
              fill="url(#paint1_linear_406_5025)"/>
        <path d="M26.4004 45.465C25.5428 48.6657 22.5274 52.1918 22.5274 52.1918C22.5274 52.1918 21.6791 47.6305 22.5367 44.4297C23.3944 41.2289 24.5663 40.3148 25.6333 40.6006C26.7002 40.8865 27.2581 42.2642 26.4004 45.465Z"
              fill="url(#paint2_linear_406_5025)"/>
        <path d="M25.7721 32.3558L23.8402 31.8381C19.5725 30.6946 15.1858 33.2273 14.0422 37.495L11.9717 45.2224L13.7162 42.7817C15.6553 40.0688 19.074 38.8432 22.2951 39.7063L23.7015 40.0832L25.7721 32.3558Z"
              fill="#666DE3"/>
        <path d="M29.6357 33.3911L31.5676 33.9088C35.8353 35.0523 38.368 39.439 37.2244 43.7067L35.1539 51.4341L34.8634 48.4482C34.5406 45.1291 32.1927 42.3585 28.9716 41.4954L27.5652 41.1185L29.6357 33.3911Z"
              fill="#666DE3"/>
        <path d="M29.7337 44.2246C32.9444 39.9697 35.4061 35.0379 36.8705 29.5726C39.2733 20.6051 38.6329 11.5391 35.5821 3.47119C28.9062 8.93283 23.8185 16.464 21.4157 25.4314C19.9513 30.8968 19.6173 36.3987 20.2703 41.6889L29.7337 44.2246Z"
              fill="#E3E3FF"/>
        <path d="M27.1167 38.9277C25.9732 43.1954 23.5626 48.3281 23.5626 48.3281C23.5626 48.3281 24.0413 42.6778 25.1849 38.4101C26.3284 34.1423 27.1703 32.7304 27.7037 32.8733C28.2372 33.0163 28.2603 34.66 27.1167 38.9277Z"
              fill="#666DE3"/>
        <path d="M28.1017 11.3884C30.2619 8.4165 32.7824 5.76194 35.5822 3.47138C36.8616 6.85498 37.7171 10.4141 38.102 14.0679C36.3901 14.1836 34.6302 14.0238 32.8803 13.5549C31.1304 13.086 29.5264 12.3445 28.1017 11.3884Z"
              fill="#666DE3"/>
        <circle cx="30.292" cy="23.2142" r="4" transform="rotate(15 30.292 23.2142)" fill="#0B0B0D"/>
        <path d="M34.1558 24.2494C33.584 26.3833 31.3906 27.6496 29.2568 27.0779C27.1229 26.5061 25.8566 24.3128 26.4283 22.1789C27.0001 20.045 29.1935 18.7787 31.3273 19.3505C33.4612 19.9222 34.7275 22.1156 34.1558 24.2494ZM27.3976 22.4386C26.9692 24.0372 27.9179 25.6803 29.5165 26.1086C31.115 26.537 32.7582 25.5883 33.1865 23.9897C33.6149 22.3912 32.6662 20.748 31.0676 20.3197C29.4691 19.8914 27.8259 20.84 27.3976 22.4386Z"
              fill="#666DE3"/>
        <path d="M21.6665 30C21.6665 30.0574 21.6657 30.1146 21.6641 30.1716C21.9776 30.0605 22.315 30 22.6665 30C24.3234 30 25.6665 31.3431 25.6665 33C25.6665 34.6569 24.3234 36 22.6665 36H7.6665C5.45736 36 3.6665 34.2091 3.6665 32C3.6665 29.7909 5.45736 28 7.6665 28C8.46083 28 9.20107 28.2315 9.82344 28.6308C10.4429 25.9768 12.8238 24 15.6665 24C18.9802 24 21.6665 26.6863 21.6665 30Z"
              fill="#747489"/>
    </g>
    <defs>
        <radialGradient id="paint0_radial_406_5025" cx="0" cy="0" r="1" gradientUnits="userSpaceOnUse"
                        gradientTransform="translate(24.3391 45.4303) rotate(90) scale(10)">
            <stop stop-color="#AA6600"/>
            <stop offset="1" stop-color="#2A2A32"/>
        </radialGradient>
        <linearGradient id="paint1_linear_406_5025" x1="25.892" y1="39.6346" x2="22.2686" y2="53.1576"
                        gradientUnits="userSpaceOnUse">
            <stop stop-color="#FFB546"/>
            <stop offset="1" stop-color="#FFF492"/>
        </linearGradient>
        <linearGradient id="paint2_linear_406_5025" x1="25.6333" y1="40.6006" x2="22.5274" y2="52.1918"
                        gradientUnits="userSpaceOnUse">
            <stop stop-color="#FFF492"/>
            <stop offset="1" stop-color="white"/>
        </linearGradient>
        <clipPath id="clip0_406_5025">
            <rect width="56" height="56" fill="white" transform="translate(0.666504)"/>
        </clipPath>
    </defs>
</svg>
