<svg width="56" height="56" viewBox="0 0 56 56" fill="none" xmlns="http://www.w3.org/2000/svg">
    <path d="M2 14.3636C2 13.0582 3.05824 12 4.36364 12H51.6364C52.9418 12 54 13.0582 54 14.3636V45.0909C54 46.3963 52.9418 47.4545 51.6364 47.4545H4.36364C3.05824 47.4545 2 46.3963 2 45.0909V14.3636Z"
          fill="#3B3B46"/>
    <rect x="5.36084" y="21.0774" width="43.2867" height="20.7023" transform="rotate(-15 5.36084 21.0774)"
          fill="#747489"/>
    <path d="M8.63998 26.044C10.648 25.506 11.8396 23.442 11.3016 21.434L42.2059 13.1532C42.7439 15.1612 44.8079 16.3528 46.8159 15.8148L49.2514 24.9043C47.2434 25.4423 46.0518 27.5063 46.5898 29.5143L15.6855 37.7951C15.1475 35.7871 13.0835 34.5955 11.0755 35.1335L8.63998 26.044Z"
          fill="#535362"/>
    <path d="M28.334 27.3932C28.4504 27.8278 28.7985 28.0661 29.2625 27.9417C29.7191 27.8194 29.8415 27.5103 29.8523 27.0496C29.792 26.3237 29.9365 26.0087 30.5642 25.1695C31.3404 24.1485 31.703 23.3803 31.4208 22.3271C30.9985 20.751 29.4466 20.0854 27.5906 20.5827C26.6184 20.8432 25.9269 21.2969 25.5243 21.8862C25.1561 22.427 25.0041 23.0676 25.1403 23.5758C25.239 23.9441 25.5423 24.1628 25.94 24.0562C26.2346 23.9773 26.3631 23.8086 26.4712 23.4166C26.648 22.6035 27.0841 22.1393 27.8721 21.9281C28.7633 21.6893 29.5648 22.0587 29.7701 22.8247C29.9497 23.4949 29.6968 23.9653 29.1 24.7725C28.2664 25.9036 28.0873 26.4726 28.334 27.3932ZM28.8631 30.3695C29.0091 30.9146 29.5669 31.1993 30.112 31.0532C30.657 30.9072 30.9977 30.3817 30.8517 29.8367C30.7056 29.2917 30.1498 29.0144 29.6048 29.1604C29.0598 29.3064 28.7171 29.8245 28.8631 30.3695Z"
          fill="#E3E3FF"/>
    <rect x="2.89966" y="23.0303" width="43.2867" height="20.7023" transform="rotate(-30 2.89966 23.0303)"
          fill="#A2A2C0"/>
    <path d="M7.35261 26.979C9.15293 25.9396 9.76977 23.6375 8.73035 21.8372L36.4384 5.83996C37.4778 7.64028 39.7799 8.25711 41.5802 7.2177L46.2853 15.3671C44.485 16.4065 43.8681 18.7086 44.9075 20.5089L17.1995 36.5062C16.1601 34.7059 13.858 34.089 12.0577 35.1284L7.35261 26.979Z"
          fill="#747489"/>
    <path d="M26.7248 23.185C26.9497 23.5746 27.3476 23.7147 27.7636 23.4745C28.173 23.2381 28.2113 22.9079 28.1024 22.4601C27.8563 21.7745 27.9143 21.4329 28.3034 20.4598C28.789 19.2726 28.9404 18.4369 28.3952 17.4926C27.5794 16.0795 25.9081 15.8382 24.244 16.7989C23.3724 17.3021 22.8219 17.9193 22.5856 18.5928C22.3699 19.2104 22.3889 19.8686 22.6519 20.3242C22.8425 20.6544 23.1921 20.7871 23.5487 20.5813C23.8128 20.4288 23.8933 20.2326 23.8962 19.8259C23.8566 18.9948 24.1577 18.4336 24.8642 18.0256C25.6632 17.5643 26.5331 17.7137 26.9295 18.4004C27.2765 19.0013 27.154 19.5211 26.7864 20.4552C26.274 21.7636 26.2483 22.3596 26.7248 23.185ZM28.0062 25.9229C28.2883 26.4116 28.9008 26.5422 29.3895 26.2601C29.8781 25.978 30.0712 25.3822 29.7891 24.8936C29.507 24.4049 28.8983 24.2809 28.4097 24.563C27.921 24.8451 27.7241 25.4343 28.0062 25.9229Z"
          fill="#E3E3FF"/>
    <path d="M28 27.3639C31.2635 27.3639 33.9091 24.7183 33.9091 21.4548H54V45.0912C54 46.3966 52.9418 47.4548 51.6364 47.4548H4.36364C3.05824 47.4548 2 46.3966 2 45.0912V21.4548H22.0909C22.0909 24.7183 24.7365 27.3639 28 27.3639Z"
          fill="#535362"/>
</svg>
