<svg width="960" height="136" viewBox="0 0 960 136" fill="none" xmlns="http://www.w3.org/2000/svg">
    <g clip-path="url(#clip0_360_3121)">
        <path d="M0.0150146 384.647C0.0150146 381.421 0.0150146 378.195 0.0150146 374.969C40.4552 353.693 81.7352 335.237 123.84 319.377C169.605 302.152 216.255 289.068 262.86 275.744C283.14 269.967 303.345 263.74 323.22 256.357C345.585 248.03 365.07 233.521 380.535 211.824C391.484 196.489 399.556 179.039 406.41 160.703C415.066 137.626 421.471 113.514 428.34 89.6566C437.1 59.0774 446.07 28.618 452.594 -2.81513C458.58 -31.6239 464.536 -60.4635 471.06 -89.1225C477.074 -115.592 484.604 -141.474 495.391 -165.735C514.168 -207.945 542.669 -234.158 582.044 -242.485C599.939 -246.265 618.013 -247.271 636.088 -246.595C668.744 -245.382 701.368 -243.342 734.024 -242.109C786.09 -240.146 837.992 -242.589 889.471 -253.26C896.191 -254.639 902.819 -256.471 909.539 -258.077C923.324 -258.077 937.171 -258.077 950.999 -258.077C945.719 -256.291 940.47 -254.324 935.144 -252.749C884.82 -237.745 833.595 -231.112 781.92 -229.79C748.996 -228.964 716.072 -229.656 683.174 -229.852C658.921 -229.986 634.664 -230.316 610.499 -226.687C591.871 -223.848 573.796 -218.463 557.1 -207.673C535.215 -193.556 518.968 -172.445 506.488 -146.905C495.03 -123.528 486.808 -98.3951 480.495 -72.4364C473.58 -44.1078 467.82 -15.3911 460.666 12.8181C450.317 53.5557 439.231 94.0079 428.279 134.52C422.296 156.697 415.319 178.364 405.9 198.77C392.34 228.179 373.065 249.906 347.055 262.284C337.86 266.681 328.41 270.687 318.795 273.268C290.16 280.995 261.405 287.942 232.695 295.189C176.16 309.354 120.54 327.435 66.48 352.087C44.1151 362.29 22.155 373.769 0.0150146 384.647Z"
              fill="#666DE3"/>
        <path d="M16.0201 394.924C11.1151 394.924 6.18012 394.804 1.26011 394.999C-0.314895 395.074 0.0451056 394.099 0.0151054 393.124C0.795104 392.823 1.60511 392.643 2.34011 392.223C60.4951 360.158 120.72 335.431 182.895 317.545C222.645 306.097 262.905 297.949 303.165 289.772C320.43 286.291 337.605 282.269 354.12 274.962C379.605 263.664 399.272 244.053 412.904 215.619C419.535 201.77 425.069 187.336 429.285 172.226C435.736 149.044 441.734 125.667 447.825 102.29C456.734 68.2141 465.631 34.0937 474.421 -0.0428144C480.392 -23.2243 485.791 -46.6324 492.134 -69.6334C498.797 -93.7022 507.763 -116.507 519.613 -137.603C540.568 -174.997 569.192 -198.808 605.822 -207.735C618.643 -210.87 631.649 -213.378 644.671 -214.261C669.946 -215.959 695.267 -216.677 720.568 -217.111C766.844 -217.922 813.043 -219.351 859.02 -225.981C893.192 -230.901 926.941 -238.03 960.015 -249.612C960.015 -245.383 960.015 -241.134 960.015 -236.92C958.963 -236.559 957.946 -236.168 956.893 -235.853C909.688 -221.029 861.615 -213.213 813.043 -209.325C778.74 -206.594 744.346 -205.154 709.966 -203.279C685.321 -201.927 660.691 -200.652 636.269 -195.824C617.595 -192.144 599.474 -186.34 582.467 -175.999C558.947 -161.733 541.094 -140.081 526.472 -114.045C513.374 -90.7598 504.269 -65.1623 497.011 -38.6044C488.506 -7.41019 480.403 23.9503 472.408 55.325C463.246 91.4563 454.441 127.692 445.394 163.853C439.768 186.36 433.517 208.567 424.005 229.198C411.66 256.056 393.811 275.217 369.99 286.141C355.47 292.788 340.44 296.674 325.155 299.345C294.645 304.672 264.03 309.173 233.61 315.205C159.27 329.984 87.645 355.987 18.7801 393.049C17.8201 393.574 16.9351 394.279 16.0201 394.924Z"
              fill="#666DE3"/>
        <path d="M50.0099 394.925C44.0099 394.925 38.01 394.925 32.01 394.925C32.88 394.355 33.69 393.68 34.59 393.23C65.7151 377.115 97.5448 363.415 130.035 351.892C189.315 330.93 249.96 319.602 311.355 313.3C329.055 311.469 346.71 309.444 364.035 304.402C377.895 300.351 391.154 294.514 403.066 284.791C418.499 272.187 429.135 254.782 437.13 234.751C445.229 214.375 450.962 192.993 455.37 171.162C468.361 106.942 485.837 44.4329 503.117 -18.1529C510.766 -45.8516 520.17 -72.6169 533.821 -96.9239C547.396 -121.054 563.716 -141.727 584.717 -156.612C600.841 -168.047 618.271 -175.234 636.449 -180.051C662.792 -187.042 689.522 -189.354 716.294 -191.513C754.199 -194.544 792.165 -197.171 830.024 -200.743C862.771 -203.831 895.319 -209.205 927.54 -216.949C938.415 -219.557 949.213 -222.588 960.015 -225.427C960.015 -221.39 960.015 -217.352 960.015 -213.346C959.37 -213.119 958.74 -212.851 958.095 -212.685C908.671 -199.107 858.467 -192.039 808.02 -186.85C773.249 -183.277 738.467 -180.185 703.649 -176.463C681.9 -174.17 660.346 -170.133 639.195 -163.215C611.939 -154.288 587.443 -139.315 566.999 -115.365C547.469 -92.4989 533.069 -65.3994 522.524 -35.346C506.596 10.2679 493.832 57.3066 482.281 104.736C475.38 133.02 470.431 162.024 464.49 190.638C460.067 211.824 455.159 232.876 447.494 252.787C435.272 284.566 415.53 305.543 387.54 315.026C371.715 320.382 355.53 322.783 339.21 324.148C318.18 325.829 297.105 326.879 276.105 328.95C205.92 335.732 137.88 354.188 72.015 384.227C64.6199 387.603 57.345 391.369 50.0099 394.925Z"
              fill="#666DE3"/>
        <path d="M960.015 -201.853C960.015 -197.816 960.015 -193.779 960.015 -189.742C959.293 -189.566 958.545 -189.354 957.842 -189.189C921.12 -180.65 884.145 -174.739 847.019 -169.864C809.672 -164.955 772.274 -160.442 734.941 -155.295C710.488 -151.934 686.296 -146.89 662.519 -138.985C610.291 -121.55 571.768 -83.8565 546.947 -25.5474C538.441 -5.53105 531.298 15.1886 524.671 36.1799C513.796 70.3606 503.474 104.736 497.507 140.747C492.599 170.201 488.206 199.715 483.421 229.199C480.046 249.875 476.098 270.387 469.079 289.818C461.506 310.719 450.136 327.404 432.722 337.307C425.146 341.614 417.166 344.389 408.929 346.31C390.643 350.511 372.165 350.811 353.655 350.436C327.06 349.881 300.51 348.456 273.93 349.911C210.855 353.362 149.67 368.217 90.195 393.619C89.4451 393.95 88.74 394.475 88.02 394.925C81.1799 394.925 74.355 394.925 67.5148 394.925C68.2348 394.475 68.9399 393.919 69.6898 393.574C78.93 389.523 88.1099 385.322 97.41 381.496C144.12 362.26 191.985 349.281 241.005 342.559C270.27 338.553 299.64 336.977 329.07 336.752C349.155 336.602 369.24 335.852 389.069 331.41C402.632 328.379 415.592 323.353 427.185 314.08C442.049 302.242 451.741 285.391 458.684 265.96C465.842 245.959 470.024 224.893 473.986 203.766C479.159 175.933 483.886 147.979 489.435 120.266C496.604 84.5699 507.571 50.2993 517.92 15.834C524.444 -5.86138 531.871 -27.0954 541.14 -47.3806C565.666 -101.096 602.173 -136.131 651.391 -151.841C673.094 -158.79 695.174 -163.307 717.496 -166.023C757.724 -170.959 797.971 -175.25 838.168 -180.097C871.618 -184.119 904.888 -189.37 937.92 -196.795C945.316 -198.446 952.666 -200.156 960.015 -201.853Z"
              fill="#666DE3"/>
        <path d="M960.015 -178.864C960.015 -174.635 960.015 -170.417 960.015 -166.173C959.266 -166.111 958.498 -166.142 957.796 -166.023C915.298 -159.42 872.866 -152.878 830.415 -146.187C799.096 -141.247 767.746 -136.584 736.516 -130.957C713.368 -126.785 690.57 -120.167 668.444 -110.625C625.213 -91.9458 591.69 -59.2805 568.846 -10.8432C559.799 8.36264 552.299 28.4528 545.145 48.7841C534.09 80.3835 524.563 112.569 519.149 146.404C514.349 176.488 511.35 206.918 508.424 237.332C506.219 260.364 504.242 283.396 499.995 306.098C497.729 318.281 494.911 330.255 490.483 341.659C482.131 363.145 468.211 375.989 449.053 380.251C442.379 381.766 435.51 382.546 428.717 382.846C405.224 383.822 381.96 380.191 358.695 377.025C334.605 373.769 310.515 370.588 286.23 370.167C240.84 369.417 196.095 375.644 151.98 388.503C145.455 390.424 139.005 392.794 132.51 394.925C124.185 394.925 115.845 394.925 107.52 394.925C108.27 394.55 109.02 394.07 109.785 393.8C123.66 389.028 137.43 383.867 151.395 379.695C209.745 362.17 268.935 356.138 328.935 360.82C351.045 362.56 373.185 363.685 395.324 364.496C407.67 364.961 419.969 363.385 432.046 359.919C453.373 353.843 468.779 338.913 478.08 314.845C483.479 300.876 487.246 286.247 489.512 271.182C493.486 244.804 497.192 218.366 500.521 191.868C506.369 145.219 515.117 99.5145 529.874 55.626C538.921 28.843 547.695 1.95554 559.592 -23.2387C577.471 -61.0359 601.816 -90.6706 634.245 -110.203C654.616 -122.495 676.17 -130.25 698.338 -135.923C731.819 -144.489 765.842 -148.615 799.741 -153.493C843.344 -159.766 886.921 -166.23 930.466 -172.849C940.366 -174.366 950.173 -176.84 960.015 -178.864"
              fill="#666DE3"/>
        <path d="M558.013 -258.077C557.549 -257.835 557.146 -257.52 556.666 -257.37C524.521 -247.091 501.869 -222.799 486.735 -187.645C477.512 -166.261 471.091 -143.56 466.049 -120.332C459.106 -88.1623 452.563 -55.8734 446.385 -23.4769C439.35 13.5382 429.661 49.5043 418.771 85.0651C411.54 108.667 404.805 132.54 395.597 155.182C387.871 174.207 378.705 192.018 366.345 207.218C351.135 225.973 332.73 238.427 312.435 247.055C288.69 257.228 264.27 264.685 239.895 272.187C189.27 287.747 138.81 304.072 89.4152 324.748C60.1202 336.977 31.155 350.256 2.59501 364.841C1.75501 365.261 0.870016 365.546 0.0150146 365.891C0.0150146 362.665 0.0150146 359.439 0.0150146 356.213C0.720015 355.913 1.44001 355.658 2.13002 355.313C23.49 345.335 44.7602 335.027 66.255 325.454C117.33 302.692 169.59 284.416 221.985 266.741C248.715 257.708 275.415 248.6 301.365 236.552C316.44 229.544 330.765 220.827 343.56 208.763C361.26 192.063 374.085 170.681 384.419 146.854C393.27 126.493 400.005 104.991 406.859 83.5797C417.466 50.4796 427.38 17.1243 433.559 -17.6729C439.845 -53.1269 446.024 -88.6425 452.609 -124.008C457.363 -149.487 462.72 -174.739 470.746 -199.092C478.095 -221.328 488.191 -241.21 503.566 -256.709C503.938 -257.086 504.196 -257.624 504.541 -258.077C522.344 -258.077 540.196 -258.077 558.013 -258.077"
              fill="#666DE3"/>
        <path d="M483.51 394.925C484.846 393.77 486.179 392.554 487.5 391.399C493.636 385.997 498.09 378.87 501.539 370.843C507.917 356.063 511.246 340.083 512.924 323.758C515.566 298.716 517.667 273.538 519.494 248.36C521.791 216.521 524.191 184.756 528.749 153.231C534.044 116.92 544.424 82.6944 556.739 49.174C563.969 29.443 571.695 10.0566 581.146 -8.29269C603.272 -51.237 634.499 -80.4646 673.321 -98.4259C697.471 -109.604 722.446 -117.106 747.944 -121.834C780.599 -127.895 813.42 -133.058 846.194 -138.205C883.288 -144.04 920.413 -149.456 957.539 -155.053C958.349 -155.16 959.174 -155.218 960.015 -155.294C960.015 -151.257 960.015 -147.236 960.015 -143.199C959.293 -143.049 958.545 -142.853 957.796 -142.765C931.995 -139.073 906.163 -135.413 880.366 -131.737C839.969 -126.006 799.592 -120.574 759.54 -111.797C733.425 -106.062 707.67 -98.6679 682.89 -87.0215C645.496 -69.4673 614.565 -41.9337 592.666 -0.806252C573.197 35.7752 558.674 75.2371 548.041 116.665C539.37 150.35 535.891 185.206 534.09 220.271C532.366 254.032 531.464 287.867 529.92 321.657C528.795 346.46 527.071 371.143 520.516 394.925C508.17 394.925 495.855 394.925 483.51 394.925"
              fill="#666DE3"/>
        <path d="M451.02 -258.077C459.18 -258.077 467.355 -258.077 475.5 -258.077C472.305 -251.247 468.749 -244.633 465.961 -237.58C458.761 -219.5 453.899 -200.382 450.509 -180.846C443.896 -142.688 437.533 -104.441 431.581 -66.1525C424.397 -19.9239 415.799 25.7519 400.531 69.2801C392.744 91.4571 385.874 114.069 376.47 135.376C365.865 159.428 352.77 181.079 334.98 198.215C321.33 211.344 305.94 220.617 289.92 228.524C263.67 241.548 236.565 251.511 209.43 261.309C150.345 282.616 91.4849 304.747 33.93 331.531C22.59 336.812 11.31 342.334 0.0150146 347.765C0.0150146 344.329 0.0150146 340.908 0.0150146 337.487C0.960015 337.157 1.92001 336.887 2.83501 336.482C25.23 326.399 47.4152 315.551 70.0051 306.278C116.28 287.222 162.765 268.991 209.16 250.461C234.945 240.153 260.52 229.244 285.42 215.995C322.455 196.264 350.13 164.784 368.385 121.271C374.895 105.741 380.805 89.8365 386.55 73.8864C396.568 46.0529 405.569 17.7995 411.133 -11.9266C418.664 -52.0631 423.629 -92.7104 429.043 -133.281C434.653 -175.326 438.797 -217.729 451.02 -258.077"
              fill="#666DE3"/>
        <path d="M960.015 -131.721C960.015 -127.684 960.015 -123.647 960.015 -119.629C939.391 -117.228 918.72 -114.947 898.049 -112.366C856.965 -107.203 815.939 -101.472 775.319 -91.8382C749.791 -85.7922 724.62 -78.156 700.397 -66.3905C674.07 -53.6224 650.266 -36.3218 630.524 -11.4002C617.069 5.61621 606.163 24.8217 596.97 45.528C583.649 75.7173 571.592 106.537 565.171 140.147C559.215 171.326 556.769 202.986 556.124 234.856C555.272 277.019 557.249 319.077 559.246 361.135C559.768 372.373 560.099 383.672 560.521 394.925C554.173 394.925 547.845 394.925 541.517 394.925C542.147 372.988 543.149 351.037 543.391 329.1C543.721 291.138 542.968 253.132 545.069 215.17C546.72 185.161 549.688 155.332 556.366 126.313C564.599 90.4367 577.62 56.9766 592.739 24.7468C607.768 -7.31703 627.571 -34.1899 653.491 -54.0872C674.968 -70.6081 698.415 -81.6975 722.849 -89.9638C757.843 -101.848 793.667 -108.643 829.667 -114.044C867.345 -119.702 905.1 -124.596 942.87 -129.755C948.568 -130.534 954.317 -131.061 960.015 -131.721"
              fill="#666DE3"/>
        <path d="M590.519 394.925C585.539 394.925 580.516 394.925 575.52 394.925C573.75 375.194 571.799 355.508 570.317 335.732C566.895 291.768 564.899 247.685 567.571 203.541C569.399 173.607 573.074 144.048 581.595 115.69C589.816 88.3361 600.541 62.4082 613.213 37.6657C628.965 6.93742 649.29 -18.3183 674.999 -37.044C695.221 -51.7481 716.97 -62.0386 739.5 -69.9783C777.992 -83.4954 817.394 -90.9396 857.042 -96.5208C883.288 -100.197 909.569 -103.001 935.866 -106.062C943.891 -106.996 951.944 -107.445 960.015 -108.117C960.015 -103.904 960.015 -99.6706 960.015 -95.4261C956.867 -95.2609 953.699 -95.1111 950.519 -94.8845C901.77 -91.4197 853.171 -85.9422 805.064 -75.4827C775.995 -69.1832 747.345 -60.8401 719.773 -47.711C692.744 -34.82 668.191 -17.2351 647.82 8.23955C632.744 27.0721 621.074 48.7989 610.741 71.6808C594.973 106.417 584.221 143.073 580.516 182.61C577.363 216.595 577.321 250.58 579.241 284.611C581.295 321.627 585.42 358.344 590.519 394.925"
              fill="#666DE3"/>
        <path d="M416.01 -258.077C421.682 -258.077 427.35 -258.077 433.021 -258.077C432.945 -257.189 432.929 -256.291 432.795 -255.419C429.853 -234.561 426.509 -213.78 424.036 -192.85C418.771 -148.258 413.987 -103.604 408.929 -59.0078C401.821 3.60339 382.83 61.223 357.99 116.245C345.06 144.828 327.99 169.226 305.355 187.487C289.41 200.345 272.295 210.488 254.67 219.446C225.465 234.256 195.39 246.259 165.345 258.308C109.845 280.545 54.5848 303.577 0.0150146 329.01C0.0150146 325.604 0.0150146 322.153 0.0150146 318.732C0.960015 318.432 1.93501 318.221 2.86502 317.801C23.595 308.648 44.2802 299.316 65.07 290.388C110.835 270.717 156.72 251.481 202.44 231.705C227.16 221.022 251.295 208.568 274.395 193.338C304.62 173.382 329.19 146.299 346.545 110.138C352.155 98.5092 357.21 86.4456 362.355 74.4569C381.765 29.1879 393.554 -18.9021 399.329 -69.3905C403.922 -109.439 407.159 -149.606 410.085 -189.865C411.736 -212.628 414.029 -235.345 416.01 -258.077Z"
              fill="#666DE3"/>
        <path d="M616.02 394.925C611.67 394.925 607.35 394.925 602.999 394.925C601.425 385.022 599.747 375.149 598.322 365.261C591.794 319.797 587.37 274.138 588.015 227.879C588.346 202.041 590.296 176.383 595.35 151.175C603.825 108.862 620.671 71.3809 642.013 36.7654C656.49 13.2831 674.669 -5.30814 695.624 -19.9507C711.541 -31.0248 728.341 -39.5177 745.693 -46.4202C780.3 -60.1486 815.939 -67.9078 851.939 -73.6081C887.82 -79.2969 923.866 -82.4313 960.016 -83.9486C960.016 -79.5043 960.016 -75.0793 960.016 -70.6542C914.446 -70.201 869.146 -65.8643 824.191 -56.5802C796.17 -50.7877 768.542 -42.9094 741.842 -30.802C717.466 -19.7279 694.694 -5.24668 675.045 15.6989C645.869 46.8335 626.669 86.2356 612.599 129.449C602.792 159.578 599.896 191.493 599.144 223.677C598.349 258.158 600.722 292.399 605.295 326.354C608.371 349.311 612.419 372.073 616.02 394.925"
              fill="#666DE3"/>
        <path d="M388.02 -258.077C392.686 -258.077 397.363 -258.077 402.013 -258.077C401.971 -256.471 401.94 -254.865 401.864 -253.26C401.069 -238.567 400.155 -223.909 399.479 -209.221C397.528 -166.86 395.762 -124.504 391.004 -82.4158C387.66 -52.931 383.715 -23.569 376.02 4.79039C367.56 35.94 355.245 65.0039 342.09 93.5127C324.87 130.814 300.78 159.983 270.495 181.89C251.115 195.889 230.94 207.968 209.895 217.601C172.035 234.976 133.98 251.661 95.9401 268.436C64.0051 282.541 31.995 296.345 0.0150146 310.254C0.0150146 306.848 0.0150146 303.427 0.0150146 299.991C9.12001 296.165 18.27 292.444 27.345 288.437C76.1549 266.936 125.04 245.659 173.685 223.677C199.77 211.914 225.24 198.365 249.42 181.53C274.17 164.274 296.46 143.478 314.46 116.365C327.645 96.5138 337.59 74.3368 347.34 51.9351C360.93 20.7405 370.485 -11.984 375.63 -46.7198C381.96 -89.5566 384.96 -132.77 386.024 -176.21C386.7 -203.505 387.36 -230.781 388.02 -258.077"
              fill="#666DE3"/>
        <path d="M638.519 394.925C634.694 394.925 630.824 394.925 626.999 394.925C626.895 394.55 626.792 394.175 626.7 393.77C618.72 352.657 612.196 311.199 609.796 268.961C608.341 243.184 608.444 217.451 610.771 191.718C614.147 154.521 624.722 120.521 640.366 88.3363C660.346 47.2688 686.642 14.4835 721.997 -7.125C745.544 -21.514 770.446 -31.4012 796.093 -38.5573C850.019 -53.6532 904.739 -59.461 960.015 -58.5584C960.015 -53.9221 960.015 -49.2858 960.015 -44.6341C926.565 -46.5086 893.219 -44.7839 859.995 -39.8172C826.245 -34.7776 793.141 -26.4922 760.996 -12.7485C715.741 6.63794 679.139 39.2261 653.822 89.2363C642.421 111.743 632.264 134.896 626.895 160.748C619.546 196.234 618.616 232.245 620.744 268.511C623.144 309.624 629.672 349.941 637.77 389.898C638.116 391.549 638.266 393.23 638.519 394.925"
              fill="#666DE3"/>
        <path d="M363.51 -258.077C367.68 -258.077 371.865 -258.077 376.02 -258.077C376.08 -257.086 376.215 -256.095 376.215 -255.088C376.17 -239.558 376.095 -224.059 376.065 -208.545C375.99 -169.142 375.405 -129.755 371.505 -90.5476C368.835 -63.8246 365.19 -37.3435 358.905 -11.4156C353.19 12.1577 343.635 33.6145 334.395 55.2811C313.035 105.291 282.54 144.693 242.415 173.307C217.935 190.787 192.165 204.892 165.855 217.691C114.24 242.778 61.7399 264.985 9.25503 287.312C6.19501 288.618 3.10502 289.743 0.0150146 290.943C0.0150146 287.492 0.0150146 284.071 0.0150146 280.665C1.06502 280.32 2.13002 280.14 3.12001 279.69C34.455 266.261 65.8648 253.102 97.0648 239.252C130.86 224.248 164.385 208.418 196.785 189.287C221.28 174.838 244.635 158.228 265.56 136.891C290.64 111.338 309.735 80.1888 325.71 45.753C339.93 15.0686 350.79 -16.92 355.98 -51.6557C360.33 -80.6605 363.465 -109.876 363.855 -139.315C364.335 -176.194 363.855 -213.062 363.78 -249.941C363.765 -252.657 363.615 -255.361 363.51 -258.077Z"
              fill="#666DE3"/>
        <path d="M960.015 -31.3398C960.015 -26.3155 960.015 -21.272 960.015 -16.2171C955.288 -16.8624 950.596 -17.6114 945.869 -18.0762C912.242 -21.4219 878.746 -19.2785 845.491 -13.0365C816.392 -7.5744 788.041 1.06824 760.846 15.0386C705.615 43.4725 669.765 93.7078 649.843 161.153C641.641 188.987 640.216 218.321 640.666 247.655C641.295 285.616 646.291 322.873 653.295 359.739C655.499 371.518 658.095 383.221 660.541 394.925C656.671 394.925 652.846 394.925 649.021 394.925C648.749 393.53 648.541 392.194 648.269 390.799C644.924 372.898 641.295 355.118 638.338 337.127C631.845 297.395 628.17 257.288 630.121 216.67C631.799 181.23 638.519 147.469 652.996 116.17C667.215 85.5603 684.196 57.847 707.324 36.1651C727.799 16.9742 750.766 3.61879 775.246 -6.04177C829.874 -27.6061 886.095 -35.0465 943.365 -32.7802C948.899 -32.5574 954.467 -31.8506 960.015 -31.3398Z"
              fill="#666DE3"/>
        <path d="M960.015 114.369C960.015 122.022 960.015 129.689 960.015 137.341C953.549 133.665 947.071 129.869 940.573 126.223C913.244 110.813 884.625 104.286 854.519 108.217C780.196 117.97 732.795 194.269 729.765 264.34C728.671 290.268 729.869 315.926 733.29 341.464C735.644 359.364 738.766 377.115 741.538 394.925C737.864 394.925 734.173 394.925 730.498 394.925C728.444 382.891 726.225 370.918 724.274 358.839C719.37 328.23 715.922 297.44 716.671 266.141C718.168 201.366 742.141 150.996 786.674 116.695C834.013 80.2937 885.016 77.5027 937.14 101.51C944.97 105.141 952.397 110.063 960.015 114.369"
              fill="#666DE3"/>
        <path d="M960.015 32.1441C960.015 39.001 960.015 45.8433 960.015 52.7002C946.199 46.0081 931.922 41.1916 917.192 38.8208C882.09 33.1943 847.695 37.8755 813.842 49.6695C760.424 68.29 721.62 107.842 697.544 168.506C687.721 193.233 684.165 219.642 683.416 246.754C682.621 275.894 685.213 304.747 689.821 333.256C693.166 353.933 697.244 374.369 701.042 394.925C697.517 394.925 694.019 394.925 690.524 394.925C688.769 386.522 686.941 378.15 685.29 369.717C678.044 332.656 672.392 295.34 671.82 257.138C671.416 231.6 672.599 206.122 679.592 181.89C696.119 124.392 726.121 80.2337 771.763 53.3605C817.14 26.5921 865.544 17.7243 915.721 21.7007C930.824 22.9011 945.569 26.6374 960.015 32.1441"
              fill="#666DE3"/>
        <path d="M960.015 71.4409C960.015 78.9131 960.015 86.3554 960.015 93.8127C923.597 71.4109 885.197 64.4039 844.965 72.6413C805.021 80.8038 770.669 101.735 744.119 139.397C723.272 168.926 709.62 202.371 706.664 241.608C704.774 265.915 705.719 290.073 708.242 314.245C711.091 341.464 715.845 368.247 721.021 394.925C717.539 394.925 714.013 394.925 710.519 394.925C703.02 358.119 696.392 321.102 694.322 283.186C692.97 258.008 693.166 232.876 698.415 208.373C709.064 159.008 732.645 120.341 767.025 91.4119C789.569 72.4914 815.025 62.0031 841.874 55.9863C882.57 46.8785 922.019 50.9598 960.015 71.4409"
              fill="#666DE3"/>
        <path d="M681.016 394.925C677.342 394.925 673.693 394.925 670.019 394.925C667.246 381.001 664.32 367.167 661.77 353.212C654.916 315.851 650.147 278.189 650.488 239.777C650.746 211.269 653.249 183.105 662.339 156.577C683.597 94.6082 718.771 49.0092 770.792 23.4262C797.399 10.3408 825.074 2.17833 853.517 -2.54632C885.043 -7.81257 916.696 -9.07248 948.419 -4.13657C952.274 -3.52198 956.145 -2.92276 960.015 -2.32353C960.015 3.53042 960.015 9.36517 960.015 15.2187C955.215 13.9884 950.415 12.5929 945.569 11.5877C918.163 5.93117 890.669 6.03487 863.117 9.7877C831.794 14.0333 801.373 22.5712 772.47 38.0707C723.422 64.3889 690.524 109.162 671.443 169.106C663.299 194.614 661.471 221.622 661.574 248.81C661.77 284.641 666.344 319.857 672.841 354.743C675.345 368.187 678.271 381.526 681.016 394.925"
              fill="#666DE3"/>
        <path d="M342.015 -258.077C345.69 -258.077 349.365 -258.077 353.01 -258.077C353.43 -243.684 353.88 -229.28 354.255 -214.906C355.245 -177.516 355.47 -140.153 352.47 -102.866C350.79 -81.9051 348.045 -61.1397 344.28 -40.5549C338.61 -9.64491 327.12 18.1744 314.085 45.3027C290.955 93.4826 260.115 132.495 220.665 161.498C201.615 175.483 181.755 187.516 161.385 198.44C119.835 220.677 77.2201 239.552 34.365 257.663C22.965 262.464 11.46 266.936 0.0150146 271.587C0.0150146 268.136 0.0150146 264.73 0.0150146 261.309C30.33 248.405 60.7949 235.951 90.9301 222.447C124.68 207.292 157.71 190.112 189.51 169.526C234.255 140.567 271.32 101.51 298.455 49.2491C309.135 28.6777 319.59 7.93999 326.565 -14.9995C336.81 -48.702 341.01 -83.841 343.08 -119.433C344.835 -150.028 344.415 -180.65 343.47 -211.276C343.005 -226.867 342.495 -242.47 342.015 -258.077"
              fill="#666DE3"/>
        <path d="M762.524 394.925C758.669 394.925 754.844 394.925 751.019 394.925C749.595 385.202 748.124 375.494 746.792 365.786C742.994 338.553 740.294 311.169 741.043 283.441C741.765 256.883 746.415 231.675 757.394 208.268C785.595 148.249 835.695 118.27 891.69 128.323C909.12 131.474 925.544 138.676 941.595 147.274C947.747 150.575 953.864 153.951 960.015 157.282C960.015 164.755 960.015 172.227 960.015 179.684C950.968 175.033 942.013 170.201 932.867 165.805C917.249 158.347 901.321 152.226 884.49 150.32C846.797 146.074 814.395 159.533 788.294 193.188C766.291 221.577 755.22 255.502 754.395 294.424C753.899 319.077 755.716 343.534 758.699 367.842C759.825 376.92 761.249 385.892 762.524 394.925"
              fill="#666DE3"/>
        <path d="M0.0150146 251.631C0.0150146 247.985 0.0150146 244.354 0.0150146 240.753C0.915014 240.483 1.81501 240.303 2.67002 239.973C20.445 232.8 38.355 226.018 55.9799 218.366C92.7149 202.416 128.655 184.291 163.245 162.279C212.505 130.919 252.99 88.1113 282.72 30.8386C297.195 2.95818 309.855 -25.7738 315.885 -58.2586C320.52 -83.1072 323.07 -108.255 324.06 -133.672C325.38 -167.313 324.24 -200.951 322.83 -234.561C322.485 -242.397 322.29 -250.241 322.02 -258.077C325.515 -258.077 329.01 -258.077 332.52 -258.077C332.49 -257.174 332.37 -256.275 332.415 -255.388C333.015 -239.078 333.72 -222.784 334.215 -206.474C335.34 -169.699 335.46 -132.95 332.055 -96.294C328.005 -52.8733 318.015 -12.0454 298.845 25.4971C280.62 61.1478 259.905 94.0379 233.115 120.971C209.955 144.274 184.185 162.504 157.23 178.364C117.405 201.816 76.08 220.827 34.23 238.232C22.89 242.929 11.43 247.175 0.0150146 251.631Z"
              fill="#666DE3"/>
        <path d="M302.52 -258.077C305.865 -258.077 309.18 -258.077 312.51 -258.077C313.26 -241.179 314.13 -224.286 314.73 -207.358C316.02 -170.463 316.08 -133.611 311.97 -96.9126C308.76 -68.2805 303.21 -40.478 292.41 -14.4771C281.88 10.8974 269.28 34.7245 254.805 57.0963C228.345 97.9841 195.345 129.343 157.86 154.146C120.84 178.679 81.9149 197.885 42.1049 214.6C28.185 220.452 14.055 225.598 0.0150146 231.075C0.0150146 227.249 0.0150146 223.422 0.0150146 219.596C0.645016 219.341 1.30502 219.116 1.93501 218.876C52.1549 201.216 100.695 178.589 146.79 148.474C197.445 115.314 238.245 69.5801 268.245 9.96817C280.155 -13.7088 290.565 -38.1541 296.13 -65.3112C302.805 -97.796 305.535 -130.838 305.22 -164.16C304.92 -195.477 303.465 -226.775 302.52 -258.077"
              fill="#666DE3"/>
        <path d="M0.0150146 209.318C0.0150146 205.087 0.0150146 200.841 0.0150146 196.609C1.08001 196.414 2.14502 196.294 3.18001 195.994C45.9902 182.085 86.9699 162.624 126.045 137.221C177.99 103.461 219.66 56.6013 250.545 -4.27101C266.415 -35.5574 277.98 -68.6261 282.39 -105.179C286.005 -135.186 287.04 -165.347 286.32 -195.596C285.81 -216.438 284.805 -237.265 284.01 -258.077C287.19 -258.077 290.355 -258.077 293.52 -258.077C293.655 -256.483 293.865 -254.892 293.94 -253.287C294.555 -239.409 295.26 -225.53 295.755 -211.637C296.97 -176.375 296.985 -141.128 292.995 -106.078C289.965 -79.489 284.715 -53.6532 274.785 -29.4653C245.355 42.3321 202.23 98.5093 144.48 138.121C107.01 163.854 67.47 183.66 26.52 199.61C17.745 203.016 8.865 206.092 0.0150146 209.318Z"
              fill="#666DE3"/>
        <path d="M0.0150146 185.731C0.0150146 181.29 0.0150146 176.878 0.0150146 172.407C0.330015 172.287 0.645016 172.137 0.960015 172.032C37.14 161.934 71.4451 145.879 104.34 125.217C159.84 90.257 203.565 40.3217 235.29 -24.948C247.98 -51.0103 257.805 -78.3365 262.245 -108.328C266.52 -137.214 267.96 -166.338 267.51 -195.596C267.195 -216.423 266.205 -237.265 265.515 -258.077C268.845 -258.077 272.19 -258.077 275.52 -258.077C275.505 -256.874 275.415 -255.676 275.46 -254.474C275.805 -246.641 276.195 -238.779 276.495 -230.931C277.89 -195.281 278.49 -159.646 274.965 -124.085C272.385 -98.1415 267.99 -72.7399 258.705 -48.9707C235.41 10.6405 202.26 60.6077 158.16 99.6348C126.87 127.318 92.3551 147.724 56.2649 164.379C37.86 172.857 19.11 179.954 0.0150146 185.731Z"
              fill="#666DE3"/>
        <path d="M229.02 -258.077C232.365 -258.077 235.68 -258.077 239.01 -258.077C239.085 -254.669 239.145 -251.232 239.235 -247.813C240.18 -216.288 240.42 -184.779 237.495 -153.343C235.11 -127.803 230.61 -102.897 221.58 -79.4158C200.655 -25.0401 171.03 21.1608 132.105 58.3123C93.105 95.5083 49.4101 120.641 0.0150146 130.094C0.0150146 124.047 0.0150146 118.015 0.0150146 111.939C1.17002 111.864 2.34001 111.864 3.49501 111.668C28.89 107.692 52.7701 97.8341 75.5401 83.9398C127.98 51.9052 168.09 4.05678 197.76 -56.8643C209.07 -80.0458 218.505 -104.203 223.155 -130.776C230.52 -172.864 230.34 -215.432 229.02 -258.077"
              fill="#666DE3"/>
        <path d="M0.0150146 159.728C0.0150146 154.701 0.0150146 149.63 0.0150146 144.603C1.74002 144.273 3.48002 144.048 5.19001 143.598C94.365 119.291 164.28 61.6128 212.985 -32.4653C223.605 -52.9771 232.89 -74.4186 238.59 -97.8113C245.295 -125.283 248.13 -153.478 248.415 -181.941C248.67 -207.331 247.86 -232.702 247.515 -258.077C250.68 -258.077 253.845 -258.077 257.01 -258.077C258.81 -218.613 260.01 -179.152 256.455 -139.749C254.205 -114.901 250.215 -90.4747 241.695 -67.5621C221.76 -13.8163 192.96 31.979 155.745 69.9106C124.515 101.765 88.9801 124.647 50.8351 141.903C34.29 149.405 17.385 155.602 0.0150146 159.728Z"
              fill="#666DE3"/>
        <path d="M0.0150146 95.0129C0.0150146 88.1561 0.0150146 81.3287 0.0150146 74.4569C3.91501 74.1569 7.83001 74.1266 11.685 73.5116C40.8599 68.9052 67.215 55.2959 91.6651 36.0451C124.38 10.2985 150.54 -23.3886 171.645 -62.849C184.86 -87.5478 196.305 -113.357 202.395 -142.15C207.435 -166.008 209.415 -190.345 210.045 -214.864C210.42 -229.268 210.36 -243.672 210.51 -258.077C213.855 -258.077 217.185 -258.077 220.515 -258.077C220.47 -256.875 220.395 -255.676 220.41 -254.474C220.785 -229.583 220.86 -204.719 219.045 -179.886C217.155 -154.288 213.735 -129.036 205.245 -105.298C187.035 -54.2525 160.68 -10.2902 125.88 26.0669C98.4899 54.7109 67.68 76.0621 32.67 88.0059C21.99 91.6369 11.145 94.338 0.0150146 95.0129Z"
              fill="#666DE3"/>
        <path d="M0.0150146 55.1309C0.0150146 47.6586 0.0150146 40.2163 0.0150146 32.7441C0.585016 32.6392 1.17002 32.474 1.74001 32.4441C31.815 30.9284 58.9049 18.7599 83.7151 -1.31717C112.605 -24.7253 135.555 -55.1513 154.305 -90.3096C165.66 -111.617 175.44 -133.957 181.32 -158.46C187.14 -182.602 189.18 -207.45 190.17 -232.464C190.515 -240.984 190.74 -249.538 191.01 -258.077C194.52 -258.077 198.015 -258.077 201.51 -258.077C201.435 -256.875 201.36 -255.676 201.315 -254.474C200.685 -235.687 200.49 -216.826 199.335 -198.058C197.895 -174.17 194.52 -150.566 186.735 -128.376C167.91 -74.7028 140.01 -29.1196 102.045 7.04124C79.3049 28.6928 54.0899 44.5976 25.515 51.5747C17.145 53.6305 8.52002 53.9754 0.0150146 55.1309Z"
              fill="#666DE3"/>
        <path d="M170.01 -258.077C173.685 -258.077 177.345 -258.077 181.02 -258.077C180.495 -246.223 180.24 -234.338 179.415 -222.5C177.855 -200.651 175.245 -178.925 168.585 -158.429C152.28 -108.029 126.795 -65.5071 91.8451 -31.5818C72.7649 -13.0635 51.5102 0.664885 27.435 6.96441C18.435 9.30753 9.16502 10.0873 0.0150146 11.5876C0.0150146 3.31913 0.0150146 -4.94707 0.0150146 -13.2018C2.34001 -13.2747 4.68001 -13.2133 6.99 -13.4706C29.565 -15.9597 50.4449 -24.6638 69.4952 -39.3986C110.535 -71.1766 138.705 -115.876 157.005 -169.849C166.53 -197.982 168.66 -228.004 170.01 -258.077"
              fill="#666DE3"/>
    </g>
    <defs>
        <clipPath id="clip0_360_3121">
            <rect width="960" height="653" fill="white" transform="translate(0 -258)"/>
        </clipPath>
    </defs>
</svg>
