<svg width="24" height="24" viewBox="0 0 24 24" fill="none" xmlns="http://www.w3.org/2000/svg">
    <rect width="24" height="24" rx="12" fill="#070708"/>
    <path d="M11.5678 10C11.9032 10 12.0896 9.61207 11.8801 9.35017L9.51237 6.39048C9.35224 6.19032 9.0478 6.19032 8.88767 6.39048L6.51992 9.35017C6.3104 9.61207 6.49687 10 6.83227 10L7.63802 10C7.84352 10 8.01559 10.1558 8.03604 10.3602L8.32798 13.2796C8.36888 13.6886 8.71301 14 9.12401 14H9.27603C9.68703 14 10.0312 13.6886 10.0721 13.2796L10.364 10.3602C10.3844 10.1558 10.5565 10 10.762 10L11.5678 10Z" fill="white"/>
    <path d="M12.4322 14C12.0968 14 11.9104 14.388 12.1199 14.6499L14.4876 17.6096C14.6478 17.8097 14.9522 17.8097 15.1123 17.6096L17.4801 14.6499C17.6896 14.388 17.5031 14 17.1677 14H16.362C16.1565 14 15.9844 13.8443 15.964 13.6398L15.672 10.7204C15.6311 10.3114 15.287 10 14.876 10L14.724 10C14.313 10 13.9689 10.3114 13.928 10.7204L13.636 13.6398C13.6156 13.8443 13.4435 14 13.238 14H12.4322Z" fill="white"/>
</svg>
