<svg width="352" height="176" viewBox="0 0 352 176" fill="none" xmlns="http://www.w3.org/2000/svg">
    <rect width="352" height="176" rx="8" fill="#FF4940"/>
    <path d="M104.472 84.312C104.163 84.312 103.864 84.3013 103.576 84.28C103.277 84.2587 103.032 84.2427 102.84 84.232V80.568C103.032 80.6 103.277 80.6267 103.576 80.648C103.864 80.68 104.163 80.696 104.472 80.696C104.995 80.696 105.416 80.6213 105.736 80.472C106.067 80.3333 106.312 80.1467 106.472 79.912C106.643 79.688 106.755 79.4373 106.808 79.16C106.872 78.8827 106.904 78.616 106.904 78.36V60.008H111.848V78.472C111.848 79.176 111.763 79.8693 111.592 80.552C111.421 81.2453 111.08 81.8747 110.568 82.44C110.067 83.0053 109.325 83.4587 108.344 83.8C107.373 84.1413 106.083 84.312 104.472 84.312ZM109.432 57.24C108.664 57.24 107.992 57.0373 107.416 56.632C106.851 56.2267 106.568 55.656 106.568 54.92C106.568 54.1733 106.851 53.5973 107.416 53.192C107.992 52.7867 108.664 52.584 109.432 52.584C110.2 52.584 110.867 52.7867 111.432 53.192C112.008 53.5973 112.296 54.1733 112.296 54.92C112.296 55.656 112.008 56.2267 111.432 56.632C110.867 57.0373 110.2 57.24 109.432 57.24ZM124.073 77.368C122.238 77.368 120.622 76.9893 119.225 76.232C117.828 75.4747 116.734 74.4347 115.945 73.112C115.166 71.7787 114.777 70.2427 114.777 68.504C114.777 66.776 115.166 65.2507 115.945 63.928C116.734 62.5947 117.828 61.56 119.225 60.824C120.622 60.0773 122.238 59.704 124.073 59.704C125.908 59.704 127.524 60.0773 128.921 60.824C130.318 61.56 131.406 62.5947 132.185 63.928C132.974 65.2507 133.369 66.776 133.369 68.504C133.369 70.2427 132.974 71.7787 132.185 73.112C131.406 74.4347 130.318 75.4747 128.921 76.232C127.524 76.9893 125.908 77.368 124.073 77.368ZM124.073 73.432C124.937 73.432 125.689 73.2293 126.329 72.824C126.969 72.4187 127.465 71.848 127.817 71.112C128.169 70.3653 128.345 69.496 128.345 68.504C128.345 67.512 128.169 66.6533 127.817 65.928C127.465 65.192 126.969 64.6267 126.329 64.232C125.689 63.8373 124.937 63.64 124.073 63.64C123.22 63.64 122.468 63.8373 121.817 64.232C121.177 64.6267 120.681 65.192 120.329 65.928C119.977 66.6533 119.801 67.512 119.801 68.504C119.801 69.496 119.977 70.3653 120.329 71.112C120.681 71.848 121.177 72.4187 121.817 72.824C122.468 73.2293 123.22 73.432 124.073 73.432ZM136.467 77V60.008H141.443V65.864L140.419 65.224C140.537 64.424 140.75 63.688 141.059 63.016C141.369 62.344 141.769 61.7627 142.259 61.272C142.75 60.7707 143.331 60.3813 144.003 60.104C144.686 59.8267 145.465 59.688 146.339 59.688C147.022 59.688 147.555 59.7413 147.939 59.848C148.334 59.944 148.579 60.0187 148.675 60.072L147.859 64.52C147.763 64.4667 147.55 64.3813 147.219 64.264C146.889 64.1467 146.462 64.088 145.939 64.088C145.086 64.088 144.371 64.232 143.795 64.52C143.219 64.808 142.755 65.192 142.403 65.672C142.062 66.1413 141.817 66.664 141.667 67.24C141.518 67.816 141.443 68.3973 141.443 68.984V77H136.467ZM156.634 77.352C155.396 77.352 154.292 77.1547 153.322 76.76C152.362 76.3653 151.61 75.7947 151.066 75.048C150.522 74.3013 150.25 73.3947 150.25 72.328C150.25 71.1227 150.58 70.1413 151.242 69.384C151.903 68.6267 152.778 68.0507 153.866 67.656C154.964 67.2507 156.154 66.984 157.434 66.856C159.3 66.6747 160.586 66.5093 161.29 66.36C162.004 66.2107 162.362 65.9493 162.362 65.576C162.362 65.5653 162.362 65.5547 162.362 65.544C162.362 64.9147 162.058 64.4187 161.45 64.056C160.852 63.6933 160.015 63.512 158.938 63.512C157.796 63.512 156.922 63.72 156.314 64.136C155.716 64.5413 155.418 65.1653 155.418 66.008H150.538C150.538 64.6427 150.906 63.4907 151.642 62.552C152.388 61.6133 153.396 60.904 154.666 60.424C155.935 59.9333 157.37 59.688 158.97 59.688C160.463 59.688 161.844 59.9173 163.114 60.376C164.383 60.824 165.402 61.5013 166.17 62.408C166.948 63.3147 167.338 64.4667 167.338 65.864C167.338 66.088 167.338 66.312 167.338 66.536C167.338 66.7493 167.338 66.968 167.338 67.192V73.208C167.338 73.6453 167.348 74.0667 167.37 74.472C167.402 74.8667 167.466 75.2293 167.562 75.56C167.668 75.9333 167.802 76.2427 167.962 76.488C168.122 76.7333 168.255 76.904 168.362 77H163.482C163.407 76.9253 163.29 76.7707 163.13 76.536C162.98 76.3013 162.852 76.0293 162.746 75.72C162.618 75.3467 162.522 74.9733 162.458 74.6C162.404 74.216 162.378 73.768 162.378 73.256L163.402 73.96C163.103 74.664 162.618 75.272 161.946 75.784C161.284 76.2853 160.495 76.6747 159.578 76.952C158.671 77.2187 157.69 77.352 156.634 77.352ZM157.962 73.64C158.74 73.64 159.466 73.5013 160.138 73.224C160.82 72.936 161.375 72.488 161.802 71.88C162.228 71.272 162.442 70.4773 162.442 69.496V67.784L163.674 68.984C162.97 69.24 162.154 69.4533 161.226 69.624C160.308 69.784 159.391 69.912 158.474 70.008C157.386 70.1147 156.57 70.3013 156.026 70.568C155.492 70.824 155.226 71.2613 155.226 71.88C155.226 72.4667 155.455 72.9093 155.914 73.208C156.372 73.496 157.055 73.64 157.962 73.64ZM179.527 77.384C177.661 77.384 176.023 77.0107 174.615 76.264C173.207 75.5067 172.114 74.456 171.335 73.112C170.567 71.768 170.183 70.216 170.183 68.456C170.183 66.6747 170.567 65.1333 171.335 63.832C172.114 62.52 173.207 61.5013 174.615 60.776C176.023 60.0507 177.661 59.688 179.527 59.688C180.925 59.688 182.162 59.896 183.239 60.312C184.317 60.7173 185.218 61.256 185.943 61.928C186.669 62.6 187.218 63.336 187.591 64.136C187.965 64.936 188.151 65.7307 188.151 66.52C188.151 66.5307 188.151 66.552 188.151 66.584C188.151 66.6053 188.151 66.6267 188.151 66.648H183.239C183.239 66.584 183.234 66.5253 183.223 66.472C183.223 66.408 183.213 66.344 183.191 66.28C183.106 65.832 182.919 65.4107 182.631 65.016C182.343 64.6213 181.938 64.3013 181.415 64.056C180.903 63.8 180.263 63.672 179.495 63.672C178.674 63.672 177.938 63.8533 177.287 64.216C176.647 64.5787 176.141 65.1173 175.767 65.832C175.394 66.536 175.207 67.4107 175.207 68.456C175.207 69.48 175.394 70.3653 175.767 71.112C176.141 71.848 176.647 72.4133 177.287 72.808C177.938 73.2027 178.674 73.4 179.495 73.4C180.338 73.4 181.026 73.272 181.559 73.016C182.093 72.7493 182.493 72.3973 182.759 71.96C183.026 71.512 183.186 71.0213 183.239 70.488H188.151C188.151 71.2773 187.965 72.0827 187.591 72.904C187.229 73.7147 186.685 74.456 185.959 75.128C185.245 75.8 184.349 76.344 183.271 76.76C182.194 77.176 180.946 77.384 179.527 77.384ZM203.217 77V70.952C203.217 70.7387 203.217 70.4453 203.217 70.072C203.217 69.6987 203.217 69.32 203.217 68.936C203.217 68.552 203.217 68.2427 203.217 68.008C203.217 66.7067 202.982 65.704 202.513 65C202.043 64.2853 201.185 63.928 199.937 63.928C199.126 63.928 198.443 64.0933 197.889 64.424C197.334 64.744 196.913 65.1973 196.625 65.784C196.347 66.3707 196.209 67.0587 196.209 67.848L194.769 66.856C194.769 65.4373 195.073 64.1947 195.681 63.128C196.289 62.0507 197.126 61.208 198.193 60.6C199.27 59.992 200.513 59.688 201.921 59.688C204.001 59.688 205.563 60.3013 206.609 61.528C207.654 62.744 208.177 64.44 208.177 66.616C208.177 67.1707 208.177 67.8373 208.177 68.616C208.177 69.3947 208.177 70.296 208.177 71.32V77H203.217ZM191.249 77V51.992H196.209V77H191.249ZM211.874 77V51.992H216.578V66.312L215.602 65.8L222.082 60.008H228.162L219.746 67.528L220.802 65.64L228.017 77H222.802L217.554 68.248L218.818 68.344L216.066 70.84L216.578 68.712V77H211.874ZM235.04 77.352C233.802 77.352 232.698 77.1547 231.728 76.76C230.768 76.3653 230.016 75.7947 229.472 75.048C228.928 74.3013 228.656 73.3947 228.656 72.328C228.656 71.1227 228.986 70.1413 229.648 69.384C230.309 68.6267 231.184 68.0507 232.272 67.656C233.37 67.2507 234.56 66.984 235.84 66.856C237.706 66.6747 238.992 66.5093 239.696 66.36C240.41 66.2107 240.768 65.9493 240.768 65.576C240.768 65.5653 240.768 65.5547 240.768 65.544C240.768 64.9147 240.464 64.4187 239.856 64.056C239.258 63.6933 238.421 63.512 237.344 63.512C236.202 63.512 235.328 63.72 234.72 64.136C234.122 64.5413 233.824 65.1653 233.824 66.008H228.944C228.944 64.6427 229.312 63.4907 230.048 62.552C230.794 61.6133 231.802 60.904 233.072 60.424C234.341 59.9333 235.776 59.688 237.376 59.688C238.869 59.688 240.25 59.9173 241.52 60.376C242.789 60.824 243.808 61.5013 244.576 62.408C245.354 63.3147 245.744 64.4667 245.744 65.864C245.744 66.088 245.744 66.312 245.744 66.536C245.744 66.7493 245.744 66.968 245.744 67.192V73.208C245.744 73.6453 245.754 74.0667 245.776 74.472C245.808 74.8667 245.872 75.2293 245.968 75.56C246.074 75.9333 246.208 76.2427 246.368 76.488C246.528 76.7333 246.661 76.904 246.768 77H241.888C241.813 76.9253 241.696 76.7707 241.536 76.536C241.386 76.3013 241.258 76.0293 241.152 75.72C241.024 75.3467 240.928 74.9733 240.864 74.6C240.81 74.216 240.784 73.768 240.784 73.256L241.808 73.96C241.509 74.664 241.024 75.272 240.352 75.784C239.69 76.2853 238.901 76.6747 237.984 76.952C237.077 77.2187 236.096 77.352 235.04 77.352ZM236.368 73.64C237.146 73.64 237.872 73.5013 238.544 73.224C239.226 72.936 239.781 72.488 240.208 71.88C240.634 71.272 240.848 70.4773 240.848 69.496V67.784L242.08 68.984C241.376 69.24 240.56 69.4533 239.632 69.624C238.714 69.784 237.797 69.912 236.88 70.008C235.792 70.1147 234.976 70.3013 234.432 70.568C233.898 70.824 233.632 71.2613 233.632 71.88C233.632 72.4667 233.861 72.9093 234.32 73.208C234.778 73.496 235.461 73.64 236.368 73.64Z"
          fill="white"/>
    <rect x="117" y="88" width="119" height="40" rx="4" fill="white" fill-opacity="0.24"/>
    <path d="M125.672 117.48C124.936 117.48 124.312 117.224 123.8 116.712C123.288 116.2 123.032 115.576 123.032 114.84C123.032 114.115 123.288 113.496 123.8 112.984C124.312 112.472 124.936 112.216 125.672 112.216C126.397 112.216 127.016 112.472 127.528 112.984C128.04 113.496 128.296 114.115 128.296 114.84C128.296 115.576 128.04 116.2 127.528 116.712C127.016 117.224 126.397 117.48 125.672 117.48ZM145.945 117L142.393 100.008H146.009L149.577 115.592L148.76 115.624L150.985 100.008H156.105L152.713 117H145.945ZM134.137 117L130.745 100.008H135.865L138.089 115.624L137.289 115.592L140.825 100.008H144.441L140.921 117H134.137ZM164.102 117.352C162.865 117.352 161.761 117.155 160.79 116.76C159.83 116.365 159.078 115.795 158.534 115.048C157.99 114.301 157.718 113.395 157.718 112.328C157.718 111.123 158.049 110.141 158.71 109.384C159.372 108.627 160.246 108.051 161.334 107.656C162.433 107.251 163.622 106.984 164.902 106.856C166.769 106.675 168.054 106.509 168.758 106.36C169.473 106.211 169.83 105.949 169.83 105.576C169.83 105.565 169.83 105.555 169.83 105.544C169.83 104.915 169.526 104.419 168.918 104.056C168.321 103.693 167.484 103.512 166.406 103.512C165.265 103.512 164.39 103.72 163.782 104.136C163.185 104.541 162.886 105.165 162.886 106.008H158.006C158.006 104.643 158.374 103.491 159.11 102.552C159.857 101.613 160.865 100.904 162.134 100.424C163.404 99.9333 164.838 99.688 166.438 99.688C167.932 99.688 169.313 99.9173 170.582 100.376C171.852 100.824 172.87 101.501 173.638 102.408C174.417 103.315 174.806 104.467 174.806 105.864C174.806 106.088 174.806 106.312 174.806 106.536C174.806 106.749 174.806 106.968 174.806 107.192V113.208C174.806 113.645 174.817 114.067 174.838 114.472C174.87 114.867 174.934 115.229 175.03 115.56C175.137 115.933 175.27 116.243 175.43 116.488C175.59 116.733 175.724 116.904 175.83 117H170.95C170.876 116.925 170.758 116.771 170.598 116.536C170.449 116.301 170.321 116.029 170.214 115.72C170.086 115.347 169.99 114.973 169.926 114.6C169.873 114.216 169.846 113.768 169.846 113.256L170.87 113.96C170.572 114.664 170.086 115.272 169.414 115.784C168.753 116.285 167.964 116.675 167.046 116.952C166.14 117.219 165.158 117.352 164.102 117.352ZM165.43 113.64C166.209 113.64 166.934 113.501 167.606 113.224C168.289 112.936 168.844 112.488 169.27 111.88C169.697 111.272 169.91 110.477 169.91 109.496V107.784L171.142 108.984C170.438 109.24 169.622 109.453 168.694 109.624C167.777 109.784 166.86 109.912 165.942 110.008C164.854 110.115 164.038 110.301 163.494 110.568C162.961 110.824 162.694 111.261 162.694 111.88C162.694 112.467 162.924 112.909 163.382 113.208C163.841 113.496 164.524 113.64 165.43 113.64ZM193.13 100.008L187.978 117H181.29L176.026 100.008H181.146L185.018 115.496H184.25L187.994 100.008H193.13ZM196.746 109.992V106.712H208.01L207.53 107.544C207.53 107.459 207.53 107.379 207.53 107.304C207.53 107.219 207.53 107.139 207.53 107.064C207.53 106.456 207.386 105.875 207.098 105.32C206.81 104.755 206.362 104.296 205.754 103.944C205.157 103.581 204.389 103.4 203.45 103.4C202.512 103.4 201.701 103.603 201.018 104.008C200.346 104.403 199.829 104.973 199.466 105.72C199.114 106.467 198.938 107.368 198.938 108.424C198.938 109.512 199.109 110.445 199.45 111.224C199.802 111.992 200.32 112.584 201.002 113C201.696 113.416 202.554 113.624 203.578 113.624C204.24 113.624 204.81 113.565 205.29 113.448C205.77 113.32 206.16 113.16 206.458 112.968C206.768 112.776 207.002 112.563 207.162 112.328C207.322 112.093 207.418 111.864 207.45 111.64H212.346C212.282 112.355 212.037 113.059 211.61 113.752C211.184 114.435 210.592 115.053 209.834 115.608C209.077 116.152 208.154 116.584 207.066 116.904C205.989 117.224 204.757 117.384 203.37 117.384C201.493 117.384 199.856 117.011 198.458 116.264C197.061 115.507 195.978 114.467 195.21 113.144C194.442 111.811 194.058 110.275 194.058 108.536C194.058 106.776 194.448 105.235 195.226 103.912C196.016 102.579 197.109 101.544 198.506 100.808C199.914 100.061 201.541 99.688 203.386 99.688C205.274 99.688 206.906 100.067 208.282 100.824C209.658 101.571 210.72 102.621 211.466 103.976C212.213 105.32 212.586 106.888 212.586 108.68C212.586 108.947 212.581 109.203 212.57 109.448C212.56 109.693 212.544 109.875 212.522 109.992H196.746ZM222.758 117.384C221.745 117.384 220.769 117.267 219.83 117.032C218.891 116.797 218.049 116.451 217.302 115.992C216.566 115.533 215.979 114.963 215.542 114.28C215.115 113.587 214.902 112.781 214.902 111.864C214.902 111.821 214.902 111.773 214.902 111.72C214.902 111.656 214.902 111.608 214.902 111.576H219.83C219.83 111.608 219.83 111.645 219.83 111.688C219.83 111.72 219.83 111.757 219.83 111.8C219.83 112.419 220.102 112.872 220.646 113.16C221.201 113.448 221.947 113.592 222.886 113.592C223.377 113.592 223.846 113.544 224.294 113.448C224.753 113.341 225.126 113.176 225.414 112.952C225.713 112.717 225.862 112.424 225.862 112.072C225.862 111.507 225.547 111.107 224.918 110.872C224.299 110.637 223.302 110.403 221.926 110.168C221.147 110.04 220.358 109.859 219.558 109.624C218.758 109.389 218.022 109.08 217.35 108.696C216.678 108.301 216.139 107.805 215.734 107.208C215.329 106.6 215.126 105.864 215.126 105C215.126 103.848 215.473 102.877 216.166 102.088C216.87 101.299 217.803 100.701 218.966 100.296C220.129 99.8907 221.409 99.688 222.806 99.688C224.139 99.688 225.382 99.912 226.534 100.36C227.686 100.797 228.619 101.432 229.334 102.264C230.049 103.085 230.406 104.077 230.406 105.24C230.406 105.261 230.406 105.293 230.406 105.336C230.406 105.379 230.406 105.421 230.406 105.464H225.526C225.526 105.421 225.526 105.384 225.526 105.352C225.526 105.32 225.526 105.293 225.526 105.272C225.526 104.845 225.387 104.499 225.11 104.232C224.843 103.965 224.502 103.768 224.086 103.64C223.67 103.501 223.238 103.432 222.79 103.432C222.385 103.432 221.963 103.48 221.526 103.576C221.099 103.661 220.737 103.811 220.438 104.024C220.139 104.227 219.99 104.515 219.99 104.888C219.99 105.251 220.15 105.549 220.47 105.784C220.79 106.008 221.238 106.195 221.814 106.344C222.39 106.483 223.057 106.616 223.814 106.744C224.529 106.861 225.281 107.027 226.07 107.24C226.87 107.443 227.617 107.736 228.31 108.12C229.014 108.493 229.579 108.989 230.006 109.608C230.443 110.216 230.662 110.989 230.662 111.928C230.662 112.899 230.438 113.731 229.99 114.424C229.542 115.117 228.934 115.683 228.166 116.12C227.409 116.547 226.561 116.861 225.622 117.064C224.694 117.277 223.739 117.384 222.758 117.384Z"
          fill="white"/>
</svg>
