<svg width="143" height="48" viewBox="0 0 143 48" fill="none" xmlns="http://www.w3.org/2000/svg">
    <rect width="77" height="24" rx="2" fill="#A5FFC9"/>
    <path d="M6.92 18.3C6.46 18.3 6.07 18.14 5.75 17.82C5.43 17.5 5.27 17.11 5.27 16.65C5.27 16.1967 5.43 15.81 5.75 15.49C6.07 15.17 6.46 15.01 6.92 15.01C7.37333 15.01 7.76 15.17 8.08 15.49C8.4 15.81 8.56 16.1967 8.56 16.65C8.56 17.11 8.4 17.5 8.08 17.82C7.76 18.14 7.37333 18.3 6.92 18.3ZM19.3903 18L17.1703 7.38H19.4303L21.6603 17.12L21.1503 17.14L22.5403 7.38H25.7403L23.6203 18H19.3903ZM12.0103 18L9.89031 7.38H13.0903L14.4803 17.14L13.9803 17.12L16.1903 7.38H18.4503L16.2503 18H12.0103ZM30.5389 18.22C29.7656 18.22 29.0756 18.0967 28.4689 17.85C27.8689 17.6033 27.3989 17.2467 27.0589 16.78C26.7189 16.3133 26.5489 15.7467 26.5489 15.08C26.5489 14.3267 26.7556 13.7133 27.1689 13.24C27.5822 12.7667 28.1289 12.4067 28.8089 12.16C29.4956 11.9067 30.2389 11.74 31.0389 11.66C32.2056 11.5467 33.0089 11.4433 33.4489 11.35C33.8956 11.2567 34.1189 11.0933 34.1189 10.86C34.1189 10.8533 34.1189 10.8467 34.1189 10.84C34.1189 10.4467 33.9289 10.1367 33.5489 9.91C33.1756 9.68333 32.6522 9.57 31.9789 9.57C31.2656 9.57 30.7189 9.7 30.3389 9.96C29.9656 10.2133 29.7789 10.6033 29.7789 11.13H26.7289C26.7289 10.2767 26.9589 9.55667 27.4189 8.97C27.8856 8.38333 28.5156 7.94 29.3089 7.64C30.1022 7.33333 30.9989 7.18 31.9989 7.18C32.9322 7.18 33.7956 7.32333 34.5889 7.61C35.3822 7.89 36.0189 8.31333 36.4989 8.88C36.9856 9.44667 37.2289 10.1667 37.2289 11.04C37.2289 11.18 37.2289 11.32 37.2289 11.46C37.2289 11.5933 37.2289 11.73 37.2289 11.87V15.63C37.2289 15.9033 37.2356 16.1667 37.2489 16.42C37.2689 16.6667 37.3089 16.8933 37.3689 17.1C37.4356 17.3333 37.5189 17.5267 37.6189 17.68C37.7189 17.8333 37.8022 17.94 37.8689 18H34.8189C34.7722 17.9533 34.6989 17.8567 34.5989 17.71C34.5056 17.5633 34.4256 17.3933 34.3589 17.2C34.2789 16.9667 34.2189 16.7333 34.1789 16.5C34.1456 16.26 34.1289 15.98 34.1289 15.66L34.7689 16.1C34.5822 16.54 34.2789 16.92 33.8589 17.24C33.4456 17.5533 32.9522 17.7967 32.3789 17.97C31.8122 18.1367 31.1989 18.22 30.5389 18.22ZM31.3689 15.9C31.8556 15.9 32.3089 15.8133 32.7289 15.64C33.1556 15.46 33.5022 15.18 33.7689 14.8C34.0356 14.42 34.1689 13.9233 34.1689 13.31V12.24L34.9389 12.99C34.4989 13.15 33.9889 13.2833 33.4089 13.39C32.8356 13.49 32.2622 13.57 31.6889 13.63C31.0089 13.6967 30.4989 13.8133 30.1589 13.98C29.8256 14.14 29.6589 14.4133 29.6589 14.8C29.6589 15.1667 29.8022 15.4433 30.0889 15.63C30.3756 15.81 30.8022 15.9 31.3689 15.9ZM48.4811 7.38L45.2611 18H41.0811L37.7911 7.38H40.9911L43.4111 17.06H42.9311L45.2711 7.38H48.4811ZM50.5414 13.62V11.57H57.5814L57.2814 12.09C57.2814 12.0367 57.2814 11.9867 57.2814 11.94C57.2814 11.8867 57.2814 11.8367 57.2814 11.79C57.2814 11.41 57.1914 11.0467 57.0114 10.7C56.8314 10.3467 56.5514 10.06 56.1714 9.84C55.7981 9.61333 55.3181 9.5 54.7314 9.5C54.1447 9.5 53.6381 9.62667 53.2114 9.88C52.7914 10.1267 52.4681 10.4833 52.2414 10.95C52.0214 11.4167 51.9114 11.98 51.9114 12.64C51.9114 13.32 52.0181 13.9033 52.2314 14.39C52.4514 14.87 52.7747 15.24 53.2014 15.5C53.6347 15.76 54.1714 15.89 54.8114 15.89C55.2247 15.89 55.5814 15.8533 55.8814 15.78C56.1814 15.7 56.4247 15.6 56.6114 15.48C56.8047 15.36 56.9514 15.2267 57.0514 15.08C57.1514 14.9333 57.2114 14.79 57.2314 14.65H60.2914C60.2514 15.0967 60.0981 15.5367 59.8314 15.97C59.5647 16.3967 59.1947 16.7833 58.7214 17.13C58.2481 17.47 57.6714 17.74 56.9914 17.94C56.3181 18.14 55.5481 18.24 54.6814 18.24C53.5081 18.24 52.4847 18.0067 51.6114 17.54C50.7381 17.0667 50.0614 16.4167 49.5814 15.59C49.1014 14.7567 48.8614 13.7967 48.8614 12.71C48.8614 11.61 49.1047 10.6467 49.5914 9.82C50.0847 8.98667 50.7681 8.34 51.6414 7.88C52.5214 7.41333 53.5381 7.18 54.6914 7.18C55.8714 7.18 56.8914 7.41667 57.7514 7.89C58.6114 8.35667 59.2747 9.01333 59.7414 9.86C60.2081 10.7 60.4414 11.68 60.4414 12.8C60.4414 12.9667 60.4381 13.1267 60.4314 13.28C60.4247 13.4333 60.4147 13.5467 60.4014 13.62H50.5414ZM66.5988 18.24C65.9654 18.24 65.3554 18.1667 64.7688 18.02C64.1821 17.8733 63.6554 17.6567 63.1888 17.37C62.7288 17.0833 62.3621 16.7267 62.0888 16.3C61.8221 15.8667 61.6888 15.3633 61.6888 14.79C61.6888 14.7633 61.6888 14.7333 61.6888 14.7C61.6888 14.66 61.6888 14.63 61.6888 14.61H64.7688C64.7688 14.63 64.7688 14.6533 64.7688 14.68C64.7688 14.7 64.7688 14.7233 64.7688 14.75C64.7688 15.1367 64.9388 15.42 65.2788 15.6C65.6254 15.78 66.0921 15.87 66.6788 15.87C66.9854 15.87 67.2788 15.84 67.5588 15.78C67.8454 15.7133 68.0788 15.61 68.2588 15.47C68.4454 15.3233 68.5388 15.14 68.5388 14.92C68.5388 14.5667 68.3421 14.3167 67.9488 14.17C67.5621 14.0233 66.9388 13.8767 66.0788 13.73C65.5921 13.65 65.0988 13.5367 64.5988 13.39C64.0988 13.2433 63.6388 13.05 63.2188 12.81C62.7988 12.5633 62.4621 12.2533 62.2088 11.88C61.9554 11.5 61.8288 11.04 61.8288 10.5C61.8288 9.78 62.0454 9.17333 62.4788 8.68C62.9188 8.18667 63.5021 7.81333 64.2288 7.56C64.9554 7.30667 65.7554 7.18 66.6288 7.18C67.4621 7.18 68.2388 7.32 68.9588 7.6C69.6788 7.87333 70.2621 8.27 70.7088 8.79C71.1554 9.30333 71.3788 9.92333 71.3788 10.65C71.3788 10.6633 71.3788 10.6833 71.3788 10.71C71.3788 10.7367 71.3788 10.7633 71.3788 10.79H68.3288C68.3288 10.7633 68.3288 10.74 68.3288 10.72C68.3288 10.7 68.3288 10.6833 68.3288 10.67C68.3288 10.4033 68.2421 10.1867 68.0688 10.02C67.9021 9.85333 67.6888 9.73 67.4288 9.65C67.1688 9.56333 66.8988 9.52 66.6187 9.52C66.3654 9.52 66.1021 9.55 65.8288 9.61C65.5621 9.66333 65.3354 9.75667 65.1488 9.89C64.9621 10.0167 64.8688 10.1967 64.8688 10.43C64.8688 10.6567 64.9688 10.8433 65.1688 10.99C65.3688 11.13 65.6488 11.2467 66.0088 11.34C66.3688 11.4267 66.7854 11.51 67.2588 11.59C67.7054 11.6633 68.1754 11.7667 68.6688 11.9C69.1688 12.0267 69.6354 12.21 70.0688 12.45C70.5088 12.6833 70.8621 12.9933 71.1288 13.38C71.4021 13.76 71.5388 14.2433 71.5388 14.83C71.5388 15.4367 71.3988 15.9567 71.1188 16.39C70.8388 16.8233 70.4588 17.1767 69.9788 17.45C69.5054 17.7167 68.9754 17.9133 68.3888 18.04C67.8088 18.1733 67.2121 18.24 66.5988 18.24Z"
          fill="black"/>
    <path d="M8.25 42H5.22V27.25H10.04L14.98 40.88L14.46 41.01V27.25H17.48V42H12.63L7.69 28.41L8.25 28.28V42ZM23.317 42.22C22.5437 42.22 21.8537 42.0967 21.247 41.85C20.647 41.6033 20.177 41.2467 19.837 40.78C19.497 40.3133 19.327 39.7467 19.327 39.08C19.327 38.3267 19.5337 37.7133 19.947 37.24C20.3604 36.7667 20.907 36.4067 21.587 36.16C22.2737 35.9067 23.017 35.74 23.817 35.66C24.9837 35.5467 25.787 35.4433 26.227 35.35C26.6737 35.2567 26.897 35.0933 26.897 34.86C26.897 34.8533 26.897 34.8467 26.897 34.84C26.897 34.4467 26.707 34.1367 26.327 33.91C25.9537 33.6833 25.4304 33.57 24.757 33.57C24.0437 33.57 23.497 33.7 23.117 33.96C22.7437 34.2133 22.557 34.6033 22.557 35.13H19.507C19.507 34.2767 19.737 33.5567 20.197 32.97C20.6637 32.3833 21.2937 31.94 22.087 31.64C22.8804 31.3333 23.777 31.18 24.777 31.18C25.7104 31.18 26.5737 31.3233 27.367 31.61C28.1604 31.89 28.797 32.3133 29.277 32.88C29.7637 33.4467 30.007 34.1667 30.007 35.04C30.007 35.18 30.007 35.32 30.007 35.46C30.007 35.5933 30.007 35.73 30.007 35.87V39.63C30.007 39.9033 30.0137 40.1667 30.027 40.42C30.047 40.6667 30.087 40.8933 30.147 41.1C30.2137 41.3333 30.297 41.5267 30.397 41.68C30.497 41.8333 30.5804 41.94 30.647 42H27.597C27.5504 41.9533 27.477 41.8567 27.377 41.71C27.2837 41.5633 27.2037 41.3933 27.137 41.2C27.057 40.9667 26.997 40.7333 26.957 40.5C26.9237 40.26 26.907 39.98 26.907 39.66L27.547 40.1C27.3604 40.54 27.057 40.92 26.637 41.24C26.2237 41.5533 25.7304 41.7967 25.157 41.97C24.5904 42.1367 23.977 42.22 23.317 42.22ZM24.147 39.9C24.6337 39.9 25.087 39.8133 25.507 39.64C25.9337 39.46 26.2804 39.18 26.547 38.8C26.8137 38.42 26.947 37.9233 26.947 37.31V36.24L27.717 36.99C27.277 37.15 26.767 37.2833 26.187 37.39C25.6137 37.49 25.0404 37.57 24.467 37.63C23.787 37.6967 23.277 37.8133 22.937 37.98C22.6037 38.14 22.437 38.4133 22.437 38.8C22.437 39.1667 22.5804 39.4433 22.867 39.63C23.1537 39.81 23.5804 39.9 24.147 39.9ZM38.7056 42V37.89C38.7056 37.4967 38.7056 37.1567 38.7056 36.87C38.7056 36.5767 38.7056 36.3333 38.7056 36.14C38.7056 35.8667 38.689 35.5967 38.6556 35.33C38.629 35.0633 38.5623 34.8167 38.4556 34.59C38.3556 34.3567 38.199 34.1733 37.9856 34.04C37.7723 33.9 37.4823 33.83 37.1156 33.83C36.7756 33.83 36.4823 33.9033 36.2356 34.05C35.989 34.19 35.7856 34.3867 35.6256 34.64C35.4723 34.8867 35.359 35.1733 35.2856 35.5C35.2123 35.82 35.1756 36.1567 35.1756 36.51L34.3256 35.81C34.3256 34.91 34.489 34.1133 34.8156 33.42C35.1423 32.72 35.6056 32.1733 36.2056 31.78C36.8123 31.38 37.529 31.18 38.3556 31.18C39.2423 31.18 39.9323 31.37 40.4256 31.75C40.9256 32.1233 41.2756 32.6233 41.4756 33.25C41.6823 33.87 41.7856 34.5567 41.7856 35.31C41.7856 35.5967 41.7856 35.9833 41.7856 36.47C41.7856 36.9567 41.7856 37.54 41.7856 38.22V42H38.7056ZM32.0756 42V31.38H35.1756V42H32.0756ZM45.3056 42V37.9C45.3056 37.4933 45.3056 37.1433 45.3056 36.85C45.3056 36.5567 45.3056 36.3133 45.3056 36.12C45.3056 35.8267 45.289 35.5467 45.2556 35.28C45.2223 35.0067 45.1523 34.76 45.0456 34.54C44.939 34.32 44.779 34.1467 44.5656 34.02C44.3523 33.8933 44.0623 33.83 43.6956 33.83C43.3556 33.83 43.0623 33.9033 42.8156 34.05C42.5756 34.19 42.379 34.3833 42.2256 34.63C42.0723 34.8767 41.959 35.1567 41.8856 35.47C41.819 35.7833 41.7856 36.11 41.7856 36.45L40.9356 35.76C40.9356 34.8733 41.0956 34.0867 41.4156 33.4C41.7423 32.7133 42.2023 32.1733 42.7956 31.78C43.3956 31.38 44.1123 31.18 44.9456 31.18C45.8123 31.18 46.4956 31.3633 46.9956 31.73C47.5023 32.0967 47.8623 32.5867 48.0756 33.2C48.2956 33.8067 48.4056 34.4867 48.4056 35.24C48.4056 35.54 48.4056 35.9267 48.4056 36.4C48.4056 36.8733 48.4056 37.45 48.4056 38.13V42H45.3056ZM51.718 37.62V35.57H58.758L58.458 36.09C58.458 36.0367 58.458 35.9867 58.458 35.94C58.458 35.8867 58.458 35.8367 58.458 35.79C58.458 35.41 58.368 35.0467 58.188 34.7C58.008 34.3467 57.728 34.06 57.348 33.84C56.9746 33.6133 56.4946 33.5 55.908 33.5C55.3213 33.5 54.8146 33.6267 54.388 33.88C53.968 34.1267 53.6446 34.4833 53.418 34.95C53.198 35.4167 53.088 35.98 53.088 36.64C53.088 37.32 53.1946 37.9033 53.408 38.39C53.628 38.87 53.9513 39.24 54.378 39.5C54.8113 39.76 55.348 39.89 55.988 39.89C56.4013 39.89 56.758 39.8533 57.058 39.78C57.358 39.7 57.6013 39.6 57.788 39.48C57.9813 39.36 58.128 39.2267 58.228 39.08C58.328 38.9333 58.388 38.79 58.408 38.65H61.468C61.428 39.0967 61.2746 39.5367 61.008 39.97C60.7413 40.3967 60.3713 40.7833 59.898 41.13C59.4246 41.47 58.848 41.74 58.168 41.94C57.4946 42.14 56.7246 42.24 55.858 42.24C54.6846 42.24 53.6613 42.0067 52.788 41.54C51.9146 41.0667 51.238 40.4167 50.758 39.59C50.278 38.7567 50.038 37.7967 50.038 36.71C50.038 35.61 50.2813 34.6467 50.768 33.82C51.2613 32.9867 51.9446 32.34 52.818 31.88C53.698 31.4133 54.7146 31.18 55.868 31.18C57.048 31.18 58.068 31.4167 58.928 31.89C59.788 32.3567 60.4513 33.0133 60.918 33.86C61.3846 34.7 61.618 35.68 61.618 36.8C61.618 36.9667 61.6146 37.1267 61.608 37.28C61.6013 37.4333 61.5913 37.5467 61.578 37.62H51.718ZM73.1653 42.24C72.0986 42.24 71.1586 42.07 70.3453 41.73C69.5386 41.39 68.9053 40.8833 68.4453 40.21C67.992 39.53 67.7653 38.6867 67.7653 37.68C67.7653 37.5733 67.7653 37.4767 67.7653 37.39C67.7653 37.2967 67.7653 37.1967 67.7653 37.09H70.8753C70.8753 37.19 70.8753 37.28 70.8753 37.36C70.8753 37.4333 70.8753 37.52 70.8753 37.62C70.8753 38.3067 71.0686 38.8333 71.4553 39.2C71.842 39.5667 72.4153 39.75 73.1753 39.75C73.942 39.75 74.532 39.63 74.9453 39.39C75.3586 39.1433 75.5653 38.74 75.5653 38.18C75.5653 37.7867 75.4086 37.44 75.0953 37.14C74.7886 36.84 74.3686 36.5733 73.8353 36.34C73.3086 36.1 72.7053 35.8767 72.0253 35.67C71.2853 35.4367 70.5986 35.13 69.9653 34.75C69.332 34.37 68.822 33.8867 68.4353 33.3C68.0553 32.7133 67.8653 31.99 67.8653 31.13C67.8653 30.2633 68.0953 29.5267 68.5553 28.92C69.0153 28.3067 69.642 27.84 70.4353 27.52C71.2286 27.1933 72.1253 27.03 73.1253 27.03C74.172 27.03 75.0953 27.1933 75.8953 27.52C76.702 27.84 77.332 28.3233 77.7853 28.97C78.2453 29.61 78.4753 30.41 78.4753 31.37C78.4753 31.4767 78.4753 31.5767 78.4753 31.67C78.4753 31.7567 78.4753 31.8567 78.4753 31.97H75.3753C75.3753 31.8967 75.3753 31.82 75.3753 31.74C75.3753 31.66 75.3753 31.5833 75.3753 31.51C75.3753 30.8633 75.1953 30.3667 74.8353 30.02C74.482 29.6733 73.9253 29.5 73.1653 29.5C72.432 29.5 71.862 29.6333 71.4553 29.9C71.0553 30.1667 70.8553 30.5767 70.8553 31.13C70.8553 31.53 70.9986 31.87 71.2853 32.15C71.5786 32.43 71.9786 32.68 72.4853 32.9C72.992 33.12 73.5686 33.34 74.2153 33.56C75.0953 33.8667 75.862 34.2067 76.5153 34.58C77.1753 34.9467 77.6853 35.41 78.0453 35.97C78.4053 36.5233 78.5853 37.23 78.5853 38.09C78.5853 38.97 78.3586 39.72 77.9053 40.34C77.452 40.96 76.8153 41.4333 75.9953 41.76C75.182 42.08 74.2386 42.24 73.1653 42.24ZM81.6063 37.62V35.57H88.6463L88.3463 36.09C88.3463 36.0367 88.3463 35.9867 88.3463 35.94C88.3463 35.8867 88.3463 35.8367 88.3463 35.79C88.3463 35.41 88.2563 35.0467 88.0763 34.7C87.8963 34.3467 87.6163 34.06 87.2363 33.84C86.8629 33.6133 86.3829 33.5 85.7963 33.5C85.2096 33.5 84.7029 33.6267 84.2763 33.88C83.8563 34.1267 83.5329 34.4833 83.3063 34.95C83.0863 35.4167 82.9763 35.98 82.9763 36.64C82.9763 37.32 83.0829 37.9033 83.2963 38.39C83.5163 38.87 83.8396 39.24 84.2663 39.5C84.6996 39.76 85.2363 39.89 85.8763 39.89C86.2896 39.89 86.6463 39.8533 86.9463 39.78C87.2463 39.7 87.4896 39.6 87.6763 39.48C87.8696 39.36 88.0163 39.2267 88.1163 39.08C88.2163 38.9333 88.2763 38.79 88.2963 38.65H91.3563C91.3163 39.0967 91.1629 39.5367 90.8963 39.97C90.6296 40.3967 90.2596 40.7833 89.7863 41.13C89.3129 41.47 88.7363 41.74 88.0563 41.94C87.3829 42.14 86.6129 42.24 85.7463 42.24C84.5729 42.24 83.5496 42.0067 82.6763 41.54C81.8029 41.0667 81.1263 40.4167 80.6463 39.59C80.1663 38.7567 79.9263 37.7967 79.9263 36.71C79.9263 35.61 80.1696 34.6467 80.6563 33.82C81.1496 32.9867 81.8329 32.34 82.7063 31.88C83.5863 31.4133 84.6029 31.18 85.7563 31.18C86.9363 31.18 87.9563 31.4167 88.8163 31.89C89.6763 32.3567 90.3396 33.0133 90.8063 33.86C91.2729 34.7 91.5063 35.68 91.5063 36.8C91.5063 36.9667 91.5029 37.1267 91.4963 37.28C91.4896 37.4333 91.4796 37.5467 91.4663 37.62H81.6063ZM93.2436 42V31.38H96.3536V35.04L95.7136 34.64C95.7869 34.14 95.9203 33.68 96.1136 33.26C96.3069 32.84 96.5569 32.4767 96.8636 32.17C97.1703 31.8567 97.5336 31.6133 97.9536 31.44C98.3803 31.2667 98.8669 31.18 99.4136 31.18C99.8403 31.18 100.174 31.2133 100.414 31.28C100.66 31.34 100.814 31.3867 100.874 31.42L100.364 34.2C100.304 34.1667 100.17 34.1133 99.9636 34.04C99.7569 33.9667 99.4903 33.93 99.1636 33.93C98.6303 33.93 98.1836 34.02 97.8236 34.2C97.4636 34.38 97.1736 34.62 96.9536 34.92C96.7403 35.2133 96.5869 35.54 96.4936 35.9C96.4003 36.26 96.3536 36.6233 96.3536 36.99V42H93.2436ZM111.993 31.38L108.773 42H104.593L101.303 31.38H104.503L106.923 41.06H106.443L108.783 31.38H111.993ZM113.153 42V31.38H116.223V42H113.153ZM114.683 29.65C114.203 29.65 113.783 29.5233 113.423 29.27C113.07 29.0167 112.893 28.66 112.893 28.2C112.893 27.7333 113.07 27.3733 113.423 27.12C113.783 26.8667 114.203 26.74 114.683 26.74C115.17 26.74 115.59 26.8667 115.943 27.12C116.303 27.3733 116.483 27.7333 116.483 28.2C116.483 28.6667 116.303 29.0267 115.943 29.28C115.59 29.5267 115.17 29.65 114.683 29.65ZM123.658 42.24C122.491 42.24 121.468 42.0067 120.588 41.54C119.708 41.0667 119.024 40.41 118.538 39.57C118.058 38.73 117.818 37.76 117.818 36.66C117.818 35.5467 118.058 34.5833 118.538 33.77C119.024 32.95 119.708 32.3133 120.588 31.86C121.468 31.4067 122.491 31.18 123.658 31.18C124.531 31.18 125.304 31.31 125.978 31.57C126.651 31.8233 127.214 32.16 127.668 32.58C128.121 33 128.464 33.46 128.698 33.96C128.931 34.46 129.048 34.9567 129.048 35.45C129.048 35.4567 129.048 35.47 129.048 35.49C129.048 35.5033 129.048 35.5167 129.048 35.53H125.978C125.978 35.49 125.974 35.4533 125.968 35.42C125.968 35.38 125.961 35.34 125.948 35.3C125.894 35.02 125.778 34.7567 125.598 34.51C125.418 34.2633 125.164 34.0633 124.838 33.91C124.518 33.75 124.118 33.67 123.638 33.67C123.124 33.67 122.664 33.7833 122.258 34.01C121.858 34.2367 121.541 34.5733 121.308 35.02C121.074 35.46 120.958 36.0067 120.958 36.66C120.958 37.3 121.074 37.8533 121.308 38.32C121.541 38.78 121.858 39.1333 122.258 39.38C122.664 39.6267 123.124 39.75 123.638 39.75C124.164 39.75 124.594 39.67 124.928 39.51C125.261 39.3433 125.511 39.1233 125.678 38.85C125.844 38.57 125.944 38.2633 125.978 37.93H129.048C129.048 38.4233 128.931 38.9267 128.698 39.44C128.471 39.9467 128.131 40.41 127.678 40.83C127.231 41.25 126.671 41.59 125.998 41.85C125.324 42.11 124.544 42.24 123.658 42.24ZM131.973 37.62V35.57H139.013L138.713 36.09C138.713 36.0367 138.713 35.9867 138.713 35.94C138.713 35.8867 138.713 35.8367 138.713 35.79C138.713 35.41 138.623 35.0467 138.443 34.7C138.263 34.3467 137.983 34.06 137.603 33.84C137.23 33.6133 136.75 33.5 136.163 33.5C135.577 33.5 135.07 33.6267 134.643 33.88C134.223 34.1267 133.9 34.4833 133.673 34.95C133.453 35.4167 133.343 35.98 133.343 36.64C133.343 37.32 133.45 37.9033 133.663 38.39C133.883 38.87 134.207 39.24 134.633 39.5C135.067 39.76 135.603 39.89 136.243 39.89C136.657 39.89 137.013 39.8533 137.313 39.78C137.613 39.7 137.857 39.6 138.043 39.48C138.237 39.36 138.383 39.2267 138.483 39.08C138.583 38.9333 138.643 38.79 138.663 38.65H141.723C141.683 39.0967 141.53 39.5367 141.263 39.97C140.997 40.3967 140.627 40.7833 140.153 41.13C139.68 41.47 139.103 41.74 138.423 41.94C137.75 42.14 136.98 42.24 136.113 42.24C134.94 42.24 133.917 42.0067 133.043 41.54C132.17 41.0667 131.493 40.4167 131.013 39.59C130.533 38.7567 130.293 37.7967 130.293 36.71C130.293 35.61 130.537 34.6467 131.023 33.82C131.517 32.9867 132.2 32.34 133.073 31.88C133.953 31.4133 134.97 31.18 136.123 31.18C137.303 31.18 138.323 31.4167 139.183 31.89C140.043 32.3567 140.707 33.0133 141.173 33.86C141.64 34.7 141.873 35.68 141.873 36.8C141.873 36.9667 141.87 37.1267 141.863 37.28C141.857 37.4333 141.847 37.5467 141.833 37.62H131.973Z"
          fill="black"/>
</svg>
