<svg width="124" height="40" viewBox="0 0 124 40" fill="none" xmlns="http://www.w3.org/2000/svg">
    <path fill-rule="evenodd" clip-rule="evenodd" d="M6.17461 24.6232C6.17461 24.8826 6.12352 25.1394 6.02427 25.379C5.92502 25.6186 5.77954 25.8363 5.59615 26.0197C5.41275 26.2031 5.19503 26.3486 4.95541 26.4479C4.71579 26.5471 4.45897 26.5982 4.19961 26.5982C3.94025 26.5982 3.68343 26.5471 3.44381 26.4479C3.20419 26.3486 2.98647 26.2031 2.80307 26.0197C2.61968 25.8363 2.4742 25.6186 2.37495 25.379C2.27569 25.1394 2.22461 24.8826 2.22461 24.6232C2.22461 24.0994 2.43269 23.597 2.80307 23.2267C3.17346 22.8563 3.67581 22.6482 4.19961 22.6482C4.72341 22.6482 5.22576 22.8563 5.59615 23.2267C5.96653 23.597 6.17461 24.0994 6.17461 24.6232ZM32.7496 24.6232C32.7496 25.147 32.5415 25.6493 32.1711 26.0197C31.8008 26.3901 31.2984 26.5982 30.7746 26.5982C30.2508 26.5982 29.7485 26.3901 29.3781 26.0197C29.0077 25.6493 28.7996 25.147 28.7996 24.6232C28.7996 24.0994 29.0077 23.597 29.3781 23.2267C29.7485 22.8563 30.2508 22.6482 30.7746 22.6482C31.2984 22.6482 31.8008 22.8563 32.1711 23.2267C32.5415 23.597 32.7496 24.0994 32.7496 24.6232Z" fill="#0055FF"/>
    <path fill-rule="evenodd" clip-rule="evenodd" d="M10.3123 11.8358L14.2873 17.1733L6.0498 18.1233L8.6998 12.0108C8.0623 11.7608 7.6123 11.1358 7.6123 10.4108C7.6123 9.46079 8.3873 8.68579 9.3373 8.68579C9.70494 8.68774 10.0624 8.80684 10.3577 9.02579C10.6531 9.24474 10.8709 9.55215 10.9796 9.90335C11.0883 10.2546 11.0822 10.6313 10.9622 10.9788C10.8422 11.3263 10.6146 11.6265 10.3123 11.8358ZM26.2623 12.0108L28.9123 18.1233L20.6748 17.1733L24.6498 11.8358C24.1998 11.5233 23.8998 10.9983 23.8998 10.4108C23.8998 9.46079 24.6748 8.68579 25.6248 8.68579C26.5748 8.68579 27.3498 9.46079 27.3498 10.4108C27.3498 11.1358 26.8998 11.7608 26.2623 12.0108Z" fill="#269995"/>
    <path d="M34.975 11.6108C34.975 10.6608 34.2 9.88578 33.25 9.88578C32.3 9.88578 31.525 10.6608 31.525 11.6108C31.525 11.9608 31.6375 12.2983 31.8125 12.5608C31.5375 12.5608 31.2625 12.6233 31 12.7983L26.0875 15.9733C25.4375 16.3858 24.5875 16.2358 24.125 15.6108L18.6625 8.19828C18.6236 8.13864 18.5774 8.08406 18.525 8.03578C18.9431 7.80559 19.2728 7.44287 19.4622 7.00473C19.6516 6.56659 19.6898 6.07791 19.571 5.61563C19.4522 5.15335 19.183 4.74372 18.8058 4.45123C18.4286 4.15874 17.9648 4 17.4875 4C17.0102 4 16.5464 4.15874 16.1692 4.45123C15.792 4.74372 15.5228 5.15335 15.404 5.61563C15.2852 6.07791 15.3234 6.56659 15.5128 7.00473C15.7022 7.44287 16.0319 7.80559 16.45 8.03578C16.4 8.08578 16.35 8.13578 16.3125 8.19828L10.85 15.6108C10.4 16.2358 9.5375 16.3858 8.8875 15.9733L3.975 12.7983C3.7125 12.6233 3.4375 12.5608 3.1625 12.5608C3.35 12.2858 3.45 11.9608 3.45 11.6108C3.45 10.6608 2.675 9.88578 1.725 9.88578C0.775 9.88578 0 10.6608 0 11.6108C0 12.5608 0.775 13.3358 1.725 13.3358C1.7875 13.3358 1.85 13.3358 1.9 13.3233C1.7375 13.6108 1.675 13.9483 1.75 14.3108L5 30.5233C5.2375 31.6858 6.2625 32.5233 7.45 32.5233H27.525C28.7125 32.5233 29.7375 31.6858 29.975 30.5233L33.225 14.3108C33.3 13.9483 33.225 13.5983 33.075 13.3233C33.1375 13.3233 33.2 13.3358 33.25 13.3358C34.2 13.3358 34.975 12.5608 34.975 11.6108Z" fill="#71E0B8"/>
    <path d="M17.4873 27.7483C18.3161 27.7483 19.111 27.4191 19.697 26.833C20.2831 26.2469 20.6123 25.4521 20.6123 24.6233C20.6123 23.7945 20.2831 22.9996 19.697 22.4136C19.111 21.8275 18.3161 21.4983 17.4873 21.4983C16.6585 21.4983 15.8636 21.8275 15.2776 22.4136C14.6915 22.9996 14.3623 23.7945 14.3623 24.6233C14.3623 25.4521 14.6915 26.2469 15.2776 26.833C15.8636 27.4191 16.6585 27.7483 17.4873 27.7483Z" fill="#0055FF"/>
    <path fill-rule="evenodd" clip-rule="evenodd" d="M11.25 24.6233C11.25 25.1206 11.0525 25.5975 10.7008 25.9491C10.3492 26.3007 9.87228 26.4983 9.375 26.4983C8.87772 26.4983 8.40081 26.3007 8.04917 25.9491C7.69754 25.5975 7.5 25.1206 7.5 24.6233C7.5 24.126 7.69754 23.6491 8.04917 23.2975C8.40081 22.9458 8.87772 22.7483 9.375 22.7483C9.87228 22.7483 10.3492 22.9458 10.7008 23.2975C11.0525 23.6491 11.25 24.126 11.25 24.6233ZM27.5 24.6233C27.5 25.1206 27.3025 25.5975 26.9508 25.9491C26.5992 26.3007 26.1223 26.4983 25.625 26.4983C25.1277 26.4983 24.6508 26.3007 24.2992 25.9491C23.9475 25.5975 23.75 25.1206 23.75 24.6233C23.75 24.126 23.9475 23.6491 24.2992 23.2975C24.6508 22.9458 25.1277 22.7483 25.625 22.7483C26.1223 22.7483 26.5992 22.9458 26.9508 23.2975C27.3025 23.6491 27.5 24.126 27.5 24.6233Z" fill="white"/>
    <path d="M54.7152 13.2501H59.9652V28.0001H57.0252V15.0801L57.0852 15.1201L54.2052 28.0001H50.1452L47.2152 15.0901L47.2752 15.0601V28.0001H44.3252V13.2501H49.5752L52.2652 26.5301H52.0052L54.7152 13.2501Z" fill="black"/>
    <path d="M63.515 23.6201V21.5701H70.555L70.255 22.0901C70.255 22.0368 70.255 21.9868 70.255 21.9401C70.255 21.8868 70.255 21.8368 70.255 21.7901C70.255 21.4101 70.165 21.0468 69.985 20.7001C69.805 20.3468 69.525 20.0601 69.145 19.8401C68.7717 19.6135 68.2917 19.5001 67.705 19.5001C67.1184 19.5001 66.6117 19.6268 66.185 19.8801C65.765 20.1268 65.4417 20.4835 65.215 20.9501C64.995 21.4168 64.885 21.9801 64.885 22.6401C64.885 23.3201 64.9917 23.9035 65.205 24.3901C65.425 24.8701 65.7484 25.2401 66.175 25.5001C66.6084 25.7601 67.145 25.8901 67.785 25.8901C68.1984 25.8901 68.555 25.8535 68.855 25.7801C69.155 25.7001 69.3984 25.6001 69.585 25.4801C69.7784 25.3601 69.925 25.2268 70.025 25.0801C70.125 24.9335 70.185 24.7901 70.205 24.6501H73.265C73.225 25.0968 73.0717 25.5368 72.805 25.9701C72.5384 26.3968 72.1684 26.7835 71.695 27.1301C71.2217 27.4701 70.645 27.7401 69.965 27.9401C69.2917 28.1401 68.5217 28.2401 67.655 28.2401C66.4817 28.2401 65.4584 28.0068 64.585 27.5401C63.7117 27.0668 63.035 26.4168 62.555 25.5901C62.075 24.7568 61.835 23.7968 61.835 22.7101C61.835 21.6101 62.0784 20.6468 62.565 19.8201C63.0584 18.9868 63.7417 18.3401 64.615 17.8801C65.495 17.4135 66.5117 17.1801 67.665 17.1801C68.845 17.1801 69.865 17.4168 70.725 17.8901C71.585 18.3568 72.2484 19.0135 72.715 19.8601C73.1817 20.7001 73.415 21.6801 73.415 22.8001C73.415 22.9668 73.4117 23.1268 73.405 23.2801C73.3984 23.4335 73.3884 23.5468 73.375 23.6201H63.515Z" fill="black"/>
    <path d="M76.3424 23.6201V21.5701H83.3824L83.0824 22.0901C83.0824 22.0368 83.0824 21.9868 83.0824 21.9401C83.0824 21.8868 83.0824 21.8368 83.0824 21.7901C83.0824 21.4101 82.9924 21.0468 82.8124 20.7001C82.6324 20.3468 82.3524 20.0601 81.9724 19.8401C81.5991 19.6135 81.1191 19.5001 80.5324 19.5001C79.9457 19.5001 79.4391 19.6268 79.0124 19.8801C78.5924 20.1268 78.2691 20.4835 78.0424 20.9501C77.8224 21.4168 77.7124 21.9801 77.7124 22.6401C77.7124 23.3201 77.819 23.9035 78.0324 24.3901C78.2524 24.8701 78.5757 25.2401 79.0024 25.5001C79.4357 25.7601 79.9724 25.8901 80.6124 25.8901C81.0257 25.8901 81.3824 25.8535 81.6824 25.7801C81.9824 25.7001 82.2257 25.6001 82.4124 25.4801C82.6057 25.3601 82.7524 25.2268 82.8524 25.0801C82.9524 24.9335 83.0124 24.7901 83.0324 24.6501H86.0924C86.0524 25.0968 85.8991 25.5368 85.6324 25.9701C85.3657 26.3968 84.9957 26.7835 84.5224 27.1301C84.049 27.4701 83.4724 27.7401 82.7924 27.9401C82.1191 28.1401 81.349 28.2401 80.4824 28.2401C79.3091 28.2401 78.2857 28.0068 77.4124 27.5401C76.5391 27.0668 75.8624 26.4168 75.3824 25.5901C74.9024 24.7568 74.6624 23.7968 74.6624 22.7101C74.6624 21.6101 74.9057 20.6468 75.3924 19.8201C75.8857 18.9868 76.5691 18.3401 77.4424 17.8801C78.3224 17.4135 79.3391 17.1801 80.4924 17.1801C81.6724 17.1801 82.6924 17.4168 83.5524 17.8901C84.4124 18.3568 85.0757 19.0135 85.5424 19.8601C86.0091 20.7001 86.2424 21.6801 86.2424 22.8001C86.2424 22.9668 86.2391 23.1268 86.2324 23.2801C86.2257 23.4335 86.2157 23.5468 86.2024 23.6201H76.3424Z" fill="black"/>
    <path d="M92.4197 28.2401C91.5331 28.2401 90.7164 28.0301 89.9697 27.6101C89.2231 27.1835 88.6231 26.5535 88.1697 25.7201C87.7164 24.8868 87.4897 23.8601 87.4897 22.6401C87.4897 21.4735 87.7197 20.4835 88.1797 19.6701C88.6464 18.8568 89.2531 18.2401 89.9997 17.8201C90.7531 17.3935 91.5597 17.1801 92.4197 17.1801C93.2597 17.1801 94.0264 17.3935 94.7197 17.8201C95.4197 18.2468 95.9797 18.8301 96.3997 19.5701C96.8197 20.3035 97.0297 21.1501 97.0297 22.1101C97.0297 22.1435 97.0297 22.1768 97.0297 22.2101C97.0297 22.2368 97.0297 22.2668 97.0297 22.3001L95.6897 22.3201C95.6897 22.3001 95.6897 22.2801 95.6897 22.2601C95.6897 22.2335 95.6897 22.2101 95.6897 22.1901C95.6897 21.6901 95.5697 21.2601 95.3297 20.9001C95.0897 20.5401 94.7797 20.2635 94.3997 20.0701C94.0197 19.8701 93.6231 19.7701 93.2097 19.7701C92.5231 19.7701 91.9297 20.0001 91.4297 20.4601C90.9297 20.9135 90.6797 21.6401 90.6797 22.6401C90.6797 23.6401 90.9297 24.3768 91.4297 24.8501C91.9364 25.3168 92.5297 25.5501 93.2097 25.5501C93.6364 25.5501 94.0397 25.4501 94.4197 25.2501C94.7997 25.0435 95.1064 24.7535 95.3397 24.3801C95.5731 24.0068 95.6897 23.5668 95.6897 23.0601L97.0297 23.1301C97.0297 24.0835 96.8231 24.9468 96.4097 25.7201C96.0031 26.4868 95.4497 27.1001 94.7497 27.5601C94.0564 28.0135 93.2797 28.2401 92.4197 28.2401ZM95.6897 28.0001V12.3701H98.7997V28.0001H95.6897Z" fill="black"/>
    <path d="M104.733 28.2001C103.98 28.2001 103.36 28.0801 102.873 27.8401C102.387 27.5935 102.003 27.2635 101.723 26.8501C101.443 26.4368 101.247 25.9768 101.133 25.4701C101.02 24.9635 100.963 24.4501 100.963 23.9301C100.963 23.6901 100.963 23.4368 100.963 23.1701C100.963 22.9035 100.963 22.6301 100.963 22.3501V17.3801H104.063V21.8601C104.063 22.0868 104.063 22.3068 104.063 22.5201C104.063 22.7335 104.063 22.9301 104.063 23.1101C104.063 23.5568 104.113 23.9668 104.213 24.3401C104.313 24.7135 104.497 25.0135 104.763 25.2401C105.037 25.4668 105.423 25.5801 105.923 25.5801C106.41 25.5801 106.823 25.4435 107.163 25.1701C107.503 24.8901 107.763 24.5335 107.943 24.1001C108.123 23.6668 108.213 23.2201 108.213 22.7601L109.083 23.4701C109.083 24.1368 108.98 24.7568 108.773 25.3301C108.573 25.9035 108.287 26.4068 107.913 26.8401C107.54 27.2668 107.083 27.6001 106.543 27.8401C106.01 28.0801 105.407 28.2001 104.733 28.2001ZM108.213 28.0001V17.3801H111.313V28.0001H108.213Z" fill="black"/>
    <path d="M117.859 28.2401C117.226 28.2401 116.616 28.1668 116.029 28.0201C115.442 27.8735 114.916 27.6568 114.449 27.3701C113.989 27.0835 113.622 26.7268 113.349 26.3001C113.082 25.8668 112.949 25.3635 112.949 24.7901C112.949 24.7635 112.949 24.7335 112.949 24.7001C112.949 24.6601 112.949 24.6301 112.949 24.6101H116.029C116.029 24.6301 116.029 24.6535 116.029 24.6801C116.029 24.7001 116.029 24.7235 116.029 24.7501C116.029 25.1368 116.199 25.4201 116.539 25.6001C116.886 25.7801 117.352 25.8701 117.939 25.8701C118.246 25.8701 118.539 25.8401 118.819 25.7801C119.106 25.7135 119.339 25.6101 119.519 25.4701C119.706 25.3235 119.799 25.1401 119.799 24.9201C119.799 24.5668 119.602 24.3168 119.209 24.1701C118.822 24.0235 118.199 23.8768 117.339 23.7301C116.852 23.6501 116.359 23.5368 115.859 23.3901C115.359 23.2435 114.899 23.0501 114.479 22.8101C114.059 22.5635 113.722 22.2535 113.469 21.8801C113.216 21.5001 113.089 21.0401 113.089 20.5001C113.089 19.7801 113.306 19.1735 113.739 18.6801C114.179 18.1868 114.762 17.8135 115.489 17.5601C116.216 17.3068 117.016 17.1801 117.889 17.1801C118.722 17.1801 119.499 17.3201 120.219 17.6001C120.939 17.8735 121.522 18.2701 121.969 18.7901C122.416 19.3035 122.639 19.9235 122.639 20.6501C122.639 20.6635 122.639 20.6835 122.639 20.7101C122.639 20.7368 122.639 20.7635 122.639 20.7901H119.589C119.589 20.7635 119.589 20.7401 119.589 20.7201C119.589 20.7001 119.589 20.6835 119.589 20.6701C119.589 20.4035 119.502 20.1868 119.329 20.0201C119.162 19.8535 118.949 19.7301 118.689 19.6501C118.429 19.5635 118.159 19.5201 117.879 19.5201C117.626 19.5201 117.362 19.5501 117.089 19.6101C116.822 19.6635 116.596 19.7568 116.409 19.8901C116.222 20.0168 116.129 20.1968 116.129 20.4301C116.129 20.6568 116.229 20.8435 116.429 20.9901C116.629 21.1301 116.909 21.2468 117.269 21.3401C117.629 21.4268 118.046 21.5101 118.519 21.5901C118.966 21.6635 119.436 21.7668 119.929 21.9001C120.429 22.0268 120.896 22.2101 121.329 22.4501C121.769 22.6835 122.122 22.9935 122.389 23.3801C122.662 23.7601 122.799 24.2435 122.799 24.8301C122.799 25.4368 122.659 25.9568 122.379 26.3901C122.099 26.8235 121.719 27.1768 121.239 27.4501C120.766 27.7168 120.236 27.9135 119.649 28.0401C119.069 28.1735 118.472 28.2401 117.859 28.2401Z" fill="black"/>
</svg>
