<svg width="34" height="34" viewBox="0 0 34 34" fill="none" xmlns="http://www.w3.org/2000/svg">
    <rect x="1" y="1" width="32" height="32" rx="16" fill="black"/>
    <path fill-rule="evenodd" clip-rule="evenodd" d="M10.2059 20.6249C10.2059 20.7806 10.1753 20.9346 10.1157 21.0784C10.0562 21.2222 9.9689 21.3528 9.85886 21.4629C9.74882 21.5729 9.61819 21.6602 9.47442 21.7197C9.33065 21.7793 9.17655 21.8099 9.02094 21.8099C8.86532 21.8099 8.71123 21.7793 8.56746 21.7197C8.42369 21.6602 8.29305 21.5729 8.18302 21.4629C8.07298 21.3528 7.98569 21.2222 7.92614 21.0784C7.86659 20.9346 7.83594 20.7806 7.83594 20.6249C7.83594 20.3107 7.96079 20.0092 8.18302 19.787C8.40525 19.5648 8.70666 19.4399 9.02094 19.4399C9.33522 19.4399 9.63663 19.5648 9.85886 19.787C10.0811 20.0092 10.2059 20.3107 10.2059 20.6249ZM26.1509 20.6249C26.1509 20.9392 26.0261 21.2406 25.8039 21.4629C25.5816 21.6851 25.2802 21.8099 24.9659 21.8099C24.6517 21.8099 24.3502 21.6851 24.128 21.4629C23.9058 21.2406 23.7809 20.9392 23.7809 20.6249C23.7809 20.3107 23.9058 20.0092 24.128 19.787C24.3502 19.5648 24.6517 19.4399 24.9659 19.4399C25.2802 19.4399 25.5816 19.5648 25.8039 19.787C26.0261 20.0092 26.1509 20.3107 26.1509 20.6249Z" fill="#0055FF"/>
    <path fill-rule="evenodd" clip-rule="evenodd" d="M12.6884 12.9525L15.0734 16.155L10.1309 16.725L11.7209 13.0575C11.3384 12.9075 11.0684 12.5325 11.0684 12.0975C11.0684 11.5275 11.5334 11.0625 12.1034 11.0625C12.3239 11.0637 12.5384 11.1351 12.7156 11.2665C12.8928 11.3979 13.0235 11.5823 13.0887 11.793C13.154 12.0038 13.1503 12.2298 13.0783 12.4383C13.0063 12.6468 12.8697 12.8269 12.6884 12.9525ZM22.2584 13.0575L23.8484 16.725L18.9059 16.155L21.2909 12.9525C21.0209 12.765 20.8409 12.45 20.8409 12.0975C20.8409 11.5275 21.3059 11.0625 21.8759 11.0625C22.4459 11.0625 22.9109 11.5275 22.9109 12.0975C22.9109 12.5325 22.6409 12.9075 22.2584 13.0575Z" fill="#269995"/>
    <path d="M27.485 12.8174C27.485 12.2474 27.02 11.7824 26.45 11.7824C25.88 11.7824 25.415 12.2474 25.415 12.8174C25.415 13.0274 25.4825 13.2299 25.5875 13.3874C25.4225 13.3874 25.2575 13.4249 25.1 13.5299L22.1525 15.4349C21.7625 15.6824 21.2525 15.5924 20.975 15.2174L17.6975 10.7699C17.6741 10.7342 17.6464 10.7014 17.615 10.6724C17.8659 10.5343 18.0637 10.3167 18.1773 10.0538C18.2909 9.79093 18.3139 9.49772 18.2426 9.22036C18.1713 8.94299 18.0098 8.69721 17.7835 8.52172C17.5571 8.34622 17.2789 8.25098 16.9925 8.25098C16.7061 8.25098 16.4279 8.34622 16.2015 8.52172C15.9752 8.69721 15.8137 8.94299 15.7424 9.22036C15.6711 9.49772 15.6941 9.79093 15.8077 10.0538C15.9213 10.3167 16.1191 10.5343 16.37 10.6724C16.34 10.7024 16.31 10.7324 16.2875 10.7699L13.01 15.2174C12.74 15.5924 12.2225 15.6824 11.8325 15.4349L8.885 13.5299C8.7275 13.4249 8.5625 13.3874 8.3975 13.3874C8.51 13.2224 8.57 13.0274 8.57 12.8174C8.57 12.2474 8.105 11.7824 7.535 11.7824C6.965 11.7824 6.5 12.2474 6.5 12.8174C6.5 13.3874 6.965 13.8524 7.535 13.8524C7.5725 13.8524 7.61 13.8524 7.64 13.8449C7.5425 14.0174 7.505 14.2199 7.55 14.4374L9.5 24.1649C9.6425 24.8624 10.2575 25.3649 10.97 25.3649H23.015C23.7275 25.3649 24.3425 24.8624 24.485 24.1649L26.435 14.4374C26.48 14.2199 26.435 14.0099 26.345 13.8449C26.3825 13.8449 26.42 13.8524 26.45 13.8524C27.02 13.8524 27.485 13.3874 27.485 12.8174Z" fill="#71E0B8"/>
    <path d="M16.9922 22.5C17.4895 22.5 17.9664 22.3025 18.318 21.9508C18.6696 21.5992 18.8672 21.1223 18.8672 20.625C18.8672 20.1277 18.6696 19.6508 18.318 19.2992C17.9664 18.9475 17.4895 18.75 16.9922 18.75C16.4949 18.75 16.018 18.9475 15.6664 19.2992C15.3147 19.6508 15.1172 20.1277 15.1172 20.625C15.1172 21.1223 15.3147 21.5992 15.6664 21.9508C16.018 22.3025 16.4949 22.5 16.9922 22.5Z" fill="#0055FF"/>
    <path fill-rule="evenodd" clip-rule="evenodd" d="M13.25 20.625C13.25 20.9234 13.1315 21.2095 12.9205 21.4205C12.7095 21.6315 12.4234 21.75 12.125 21.75C11.8266 21.75 11.5405 21.6315 11.3295 21.4205C11.1185 21.2095 11 20.9234 11 20.625C11 20.3266 11.1185 20.0405 11.3295 19.8295C11.5405 19.6185 11.8266 19.5 12.125 19.5C12.4234 19.5 12.7095 19.6185 12.9205 19.8295C13.1315 20.0405 13.25 20.3266 13.25 20.625ZM23 20.625C23 20.9234 22.8815 21.2095 22.6705 21.4205C22.4595 21.6315 22.1734 21.75 21.875 21.75C21.5766 21.75 21.2905 21.6315 21.0795 21.4205C20.8685 21.2095 20.75 20.9234 20.75 20.625C20.75 20.3266 20.8685 20.0405 21.0795 19.8295C21.2905 19.6185 21.5766 19.5 21.875 19.5C22.1734 19.5 22.4595 19.6185 22.6705 19.8295C22.8815 20.0405 23 20.3266 23 20.625Z" fill="white"/>
    <rect x="1" y="1" width="32" height="32" rx="16" stroke="black" stroke-width="2"/>
</svg>
